<?xml version="1.0" encoding="utf-8"?>
<!-- Generator: Adobe Illustrator 18.0.0, SVG Export Plug-In . SVG Version: 6.00 Build 0)  -->
<!DOCTYPE svg PUBLIC "-//W3C//DTD SVG 1.1//EN" "http://www.w3.org/Graphics/SVG/1.1/DTD/svg11.dtd">
<svg version="1.1" id="Layer_1" xmlns="http://www.w3.org/2000/svg" xmlns:xlink="http://www.w3.org/1999/xlink" x="0px" y="0px"
	 viewBox="0 0 64 64" enable-background="new 0 0 64 64" xml:space="preserve">
<g>
	<g>
		<g>
			<path fill="#FFD41D" d="M32,0c17.7,0,32,14.3,32,32S49.7,64,32,64S0,49.7,0,32S14.3,0,32,0z"/>
		</g>
	</g>
	<g>
		<g>
			<polygon fill="#FFFFFF" points="41,18 40.7,18 32,24 23.3,18 23,18 10,22 10,49 23,52 32,50 41,52 54,49 54,22 			"/>
		</g>
	</g>
	<g>
		<g>
			<polygon fill="#34BF8D" points="51,45 51,47 41,49 41,42.4 42.2,41.3 			"/>
		</g>
	</g>
	<g>
		<g>
			<polygon fill="#F4D6A6" points="51,33 51,43 43.6,39.9 			"/>
		</g>
	</g>
	<g>
		<g>
			<polygon fill="#449CD8" points="51,24 51,30 41.5,39 41,38.8 41,21 			"/>
		</g>
	</g>
	<g>
		<g>
			<polygon fill="#EFBF48" points="51,30 41.5,39 41,38.8 41,39.5 41,40.8 41,42.4 42.2,41.3 51,45 51,43 43.6,39.9 51,33 			"/>
		</g>
	</g>
	<g>
		<g>
			<polygon fill="#54D1AD" points="41,42.4 41,49 35.3,47.7 			"/>
		</g>
	</g>
	<g>
		<g>
			<polygon fill="#FCDD5B" points="32,35 32,37 40,40.4 32.9,47.2 35.3,47.7 41,42.4 41,40.8 41,39.5 41,38.8 			"/>
		</g>
	</g>
	<g>
		<g>
			<polygon fill="#54D1AD" points="40,40.4 32.9,47.2 32,47 32,37 			"/>
		</g>
	</g>
	<g>
		<g>
			<polygon fill="#34BF8D" points="32,37 32,47 23,49 23,33.2 			"/>
		</g>
	</g>
	<g>
		<g>
			<polygon fill="#EFBF48" points="32,35 32,37 23,33.2 23,31.2 			"/>
		</g>
	</g>
	<g>
		<g>
			<polygon fill="#F4D6A6" points="32,35 23,31.2 23,21 32,27 			"/>
		</g>
	</g>
	<g>
		<g>
			<polygon fill="#54D1AD" points="23,33.2 23,49 13,47 13,29 			"/>
		</g>
	</g>
	<g>
		<g>
			<polygon fill="#FCDD5B" points="23,31.2 23,33.2 13,29 13,27 			"/>
		</g>
	</g>
	<g>
		<g>
			<polygon fill="#FFF4C5" points="23,21 23,31.2 13,27 13,24 			"/>
		</g>
	</g>
	<g>
		<g>
			<polygon fill="#63B0E5" points="38.7,22.5 38.7,22.5 32,27 32,31 32,32 32,35 41,38.8 41,21 			"/>
		</g>
	</g>
	<g>
		<g>
			<path fill="#E84B4B" d="M32,7c-5,0-9,4-9,9c0,0.7,0.1,1.3,0.3,2c0.4,1.5,1.1,3,2,4.5c2.3,3.8,5.7,7.2,6.7,8.5
				c1-1.2,4.4-4.7,6.7-8.5c0.9-1.5,1.7-3,2-4.5c0.2-0.7,0.3-1.4,0.3-2C41,11,37,7,32,7z M32,19c-1.7,0-3-1.3-3-3s1.3-3,3-3
				s3,1.3,3,3S33.7,19,32,19z"/>
		</g>
	</g>
	<g>
		<g>
			<path fill="#C93D3D" d="M29,16c0,1.7,1.3,3,3,3s3-1.3,3-3s-1.3-3-3-3S29,14.3,29,16z M27,16c0-2.8,2.2-5,5-5s5,2.2,5,5
				s-2.2,5-5,5S27,18.8,27,16z"/>
		</g>
	</g>
</g>
</svg>
