<?xml version="1.0" encoding="utf-8"?>
<!-- Generator: Adobe Illustrator 18.0.0, SVG Export Plug-In . SVG Version: 6.00 Build 0)  -->
<!DOCTYPE svg PUBLIC "-//W3C//DTD SVG 1.1//EN" "http://www.w3.org/Graphics/SVG/1.1/DTD/svg11.dtd">
<svg version="1.1" id="Layer_1" xmlns="http://www.w3.org/2000/svg" xmlns:xlink="http://www.w3.org/1999/xlink" x="0px" y="0px"
	 viewBox="0 0 64 64" enable-background="new 0 0 64 64" xml:space="preserve">
<g>
	<g>
		<g>
			<g>
				<path fill="#BD6AE5" d="M32,0c17.7,0,32,14.3,32,32S49.7,64,32,64S0,49.7,0,32S14.3,0,32,0z"/>
			</g>
		</g>
	</g>
	<g>
		<g>
			<path fill="#FFFFFF" d="M42.1,34v4.1h-1c-3.9,0-6.1-2.9-7.9-6.1c1.8-3.2,4-6.1,7.9-6.1h1V30l6.9-6l-6.9-6v3.7h-1
				c-5.2,0-8.3,3.2-10.3,6.1c-2-3-5.1-6.1-10-6.1H15v4.2h5.8c3.5,0,5.6,2.6,7.6,6c-1.8,3-3.9,5.5-7.6,5.5H15v4.2h5.8
				c4.9,0,8-2.8,10-5.6c2,2.9,5.1,6.2,10.3,6.2h1V46l6.9-5.8L42.1,34z"/>
		</g>
	</g>
</g>
</svg>
