<?xml version="1.0" encoding="UTF-8" standalone="no"?>
<!DOCTYPE svg PUBLIC "-//W3C//DTD SVG 1.1//EN"
"http://www.w3.org/Graphics/SVG/1.1/DTD/svg11.dtd">


<!-- Page 1 -->
<svg x="0" y="0" width="1136" height="233" viewBox="0 0 1136 233" version="1.1" xmlns="http://www.w3.org/2000/svg" xmlns:xlink="http://www.w3.org/1999/xlink"
style="display: block;margin-left: auto;margin-right: auto;">
<defs>
<clipPath id="c_1"><path d="M0,0H1136V233H0Z"/></clipPath>
<style type="text/css"><![CDATA[

.g0{
fill: none;
stroke: #231F20;
stroke-width: 2.064;
stroke-linecap: butt;
stroke-linejoin: miter;
stroke-miterlimit: 4;
}
.g1{
fill: #E48124;
}
.g2{
fill: #231F20;
}

]]></style>

</defs>
<g clip-path="url(#c_1)">
<path d="M0,0
L0,233
L1136,233
L1136,0 Z " 
fill="#FFFFFF" stroke="none"/>
<path d="M456.7,25.6V207.8" class="g0"/>
<path d="M759.2,192.7c0,6.7,5.9,11.1,13.6,11.1c6.9,0,13.6,-4.4,13.6,-11.1c0,-7,-6.6,-10.9,-13.6,-10.9c-6.8,0,-13.6,3.9,-13.6,10.9m-4.9,0c0,-10.4,9.2,-15.6,18.5,-15.6c9,0,18.5,5.2,18.5,15.6c0,10.2,-9.3,15.6,-18.5,15.6c-9.4,0,-18.5,-5.4,-18.5,-15.6Z" class="g1"/>
<path d="M834.3,202.9h12.4c6.6,0,10.7,-5,10.5,-10.6c-.1,-5.2,-3.7,-9.7,-10.5,-9.7H834.3Zm-4.9,-25.2h18c8.2,0,14.7,6.6,14.7,14.8c0,7.9,-5.1,15.3,-14.7,15.3h-18Z" class="g1"/>
<path d="M729,188.2h18.5V201c-5.5,4.8,-12.9,7.3,-20.1,7.3C714.6,208.5,705,199.6,705,188.8c0,-13.1,11.9,-18.9,23.1,-19c5.8,0,13.2,3,18.2,6l-3.1,4.2c-4.8,-3.1,-10.5,-5,-16.3,-5c-8,0,-16.4,5.2,-16.5,13.8c-.2,6.6,5.8,14.7,17.1,14.6c9,-.2,12.2,-2.4,15,-5.2v-5.5H729Z" class="g1"/>
<path d="M798.4,177.7v30.1h23.3v-4.9H803.3V177.7Z" class="g1"/>
<path d="M973.2,177.7v16.6h-20V177.7h-4.9v30.1h4.9v-8.6h20v8.6h4.9V177.7Z" class="g2"/>
<path d="M1071.5,177.7v4.9H1083v25.2h4.9V182.6h11.8v-4.9Z" class="g2"/>
<path d="M1107.1,207.8h4.9V177.7h-4.9v30.1Z" class="g2"/>
<path d="M1001.1,177.7l-15.7,30.1h5.5l4.5,-8.6h17.8l4.5,8.6h5.6l-15.9,-30.1Zm3.1,4.6l6.4,12H998Z" class="g2"/>
<path d="M940.8,197.7c.4,7.9,-8.5,10.7,-14.9,10.5c-10.3,-.2,-16.4,-5.3,-16.4,-5.3l2.8,-4.1c9.2,7,23.8,5.4,23.4,-.7c-.2,-3.7,-6.8,-3.4,-9.5,-3.5c-2.4,-.1,-4.4,-.3,-6.1,-.6c-6,-1.2,-9.3,-4.4,-9,-8.5c.3,-6.7,7.7,-8.6,13.7,-8.4c5.3,.2,10,1.6,14.6,4l-2.9,4.2c-8.2,-5,-20.1,-4.7,-20.2,.3c0,1.5,1,2.9,3.7,3.5c3.7,.8,6.4,.7,10.3,1c6.9,.5,10.3,3.3,10.5,7.6Z" class="g2"/>
<path d="M882.7,170.3l-17.9,37.5h5.5l4,-8.6h21l4.2,8.6h5.4L886.7,170.3Zm2.1,7.2l8.2,16.8H876.7Z" class="g2"/>
<path d="M1059.1,177.7v23.2l-23.6,-23.2h-5v30.1h4.9V185.1l23.2,22.7h5.4V177.7Z" class="g2"/>
<path d="M520.5,170.3l-17.8,37.5h5.4l4.1,-8.6h20.9l4.2,8.6h5.4L524.5,170.3Zm2.1,7.2l8.2,16.8H514.5Z" class="g2"/>
<path d="M611,191.9h15.3v10.6c-4.6,3.9,-10.4,5.9,-16.3,5.9c-10.3,.2,-18.1,-7,-18.1,-15.7c0,-10.7,9.7,-15.3,18.6,-15.4c4.9,0,10.8,2.4,14.9,4.9l-2.8,3.8c-3.9,-2.4,-8.3,-3.7,-13,-3.7c-6.3,0,-12.7,3.8,-12.8,10.4c-.1,5.1,4.4,11,13.3,10.9c7,-.1,9.8,-2.1,11.3,-3.6v-3.2H611Z" class="g2"/>
<path d="M634.2,177.7v30.1h23.2v-4.9H639.1V177.7Z" class="g2"/>
<path d="M666,192.7c0,6.8,5.8,11.1,13.6,11.1c6.9,0,13.6,-4.4,13.6,-11.1c0,-7,-6.7,-10.9,-13.6,-10.9c-6.9,0,-13.6,4,-13.6,10.9m-4.9,0c0,-10.3,9.2,-15.5,18.5,-15.5c9,0,18.5,5.2,18.5,15.5c0,10.2,-9.3,15.7,-18.5,15.7c-9.4,0,-18.5,-5.5,-18.5,-15.7Z" class="g2"/>
<path d="M579.1,177.7v23.2L555.4,177.7h-4.9v30.1h4.9V185.1l23.2,22.7H584V177.7Z" class="g2"/>
<path d="M691.9,150.1c-1,.7,-2.7,1.2,-2.7,1.3v.4c-.1,0,-.4,.1,-.7,.1c-.2,0,-.5,-.1,-.6,-.6c0,-.3,.1,-.5,.3,-.6c.5,-.6,1.2,-1.2,1.6,-1.9c.2,-.3,1.1,-1.9,1,-3.2c0,-.4,-.4,-1,-.2,-1.6c.1,-.4,2,.8,2.7,2.4c.7,1.8,-1.4,3.7,-1.4,3.7Z" class="g2"/>
<path d="M680.4,64.3l3.4,-1.4c.5,0,-1,1.4,-1.3,2.1c-.9,1.2,-1.9,1.5,-3.4,2.6c-.3,.2,-.7,.6,-.4,1.4c0,.3,-.5,.9,-.7,1c-.5,.2,-2.6,-.8,-3,-1.3c-1.1,-1.5,-1.8,-1.9,-2.7,-2.8c-.5,-.5,-.8,-1.2,-.9,-1.9l.2,-.1l1,.5l3.2,.6c1.1,.1,3.6,-.2,4.6,-.7Z" class="g2"/>
<path d="M689.6,40.7c-2.4,-2.1,-5.2,-2.7,-8,-4C680.2,36,680.2,34.4,680.2,33c-.1,-1.7,.2,-3.4,1.2,-4.8c1.6,-2.1,3.1,-3.4,5.8,-3.2c1.5,.1,2.7,0,4,.8c1.5,.9,2.5,2.2,3.5,3.5c2.1,2.6,5.1,4.2,8,5.7c4.6,2.5,8,6.3,11.1,10.5c3.3,4.6,5.6,10.9,3.9,16.5l-.4,1c-.7,2.4,-3.1,5.1,-5,6.5l-.9,.6c-5.1,3.7,-4.1,8.5,-4.2,14c-.9,5,-4.4,9.2,-8.5,12.1c-2.9,2,-10.1,6.1,-13.3,3.2c-.2,-.2,2.4,-1.1,3.8,-2.6c1.4,-1.6,2.6,-3.8,3.2,-5.7c.7,-2.2,.8,-4.6,.8,-6.9c-.1,-2.3,-.4,-4.5,-.9,-6.7c-.3,-1.6,-.6,-3.4,-.2,-5c.4,-1.3,1,-2.5,1.5,-3.8l.2,-.5l2.6,-4.5l1.1,-2c1.2,-2.3,.9,-4.9,.3,-7.4l-.6,-1.9l-.7,-1.8l-.9,-1.8c-.5,-.9,.2,-1.3,.9,-2.5c.2,-.3,.4,0,.7,-.3c1.3,-1,2.7,-4.6,-1.2,-7.7c-.3,-.3,-1.6,-.6,-2.3,.3c-.2,.2,-1.8,4.2,-4.1,2.1Z" class="g2"/>
<path d="M686.8,146.2c-.2,-.3,-.3,-.6,-.6,-.9c-.3,-.3,-.5,-.6,-.9,-.9c-.3,-.3,-.7,-.4,-1.1,-.6c-.2,-.1,-.4,-.1,-.7,-.2c-.3,0,-.3,1.4,-.3,1.6c.2,.8,.7,1.4,.9,2.2c.3,1.1,.3,2.6,-1.1,3c-1.3,.4,-2.7,-1.6,-3.3,-4.4c-.5,-2.3,1.1,-4.8,1.9,-6.9l1.2,-2.7l1.3,-2.7c2,-4.3,2.7,-9,2.1,-13.7c0,-.7,-2.4,-11.6,-3.5,-11c-.2,.2,-.2,.3,-.2,.5c0,.2,0,.5,0,.6l.1,.3l.1,.7l.2,.7c.7,2.8,.9,6.2,.3,9.1c-.6,3,-2.7,5.2,-3,8.4c-.2,.5,-.6,.9,-1.1,.9L677.9,129c-2.5,-2.9,-4.8,-6.4,-6.3,-9.8l-1.2,-2.7c-1.6,-3.8,-2.1,-8.2,-2.4,-12.2l-.1,-3V98.1l.3,-3l1,-7.4c0,-2,-.3,-4,-.9,-5.9c-.2,-.9,-.5,-1.4,-.7,-1.3c-.6,1.6,-1,3.4,-1.4,5.1c-.6,2.7,-.6,5.5,-1.3,8.2c-.3,1.1,-.8,2,-1.9,2.6c-1.3,.7,-2.8,.4,-4.1,.9c-2.3,.9,-3.8,2.8,-4.8,5c-.5,1.1,-.8,2.2,-1,3.4c-.2,1.3,.3,2.8,-.2,4l-.2,.7l-3.1,6.2l-1.6,3c-.2,.5,-.4,.9,-.6,1.3c-.4,.8,-.9,1.4,-.9,2.3c.1,1.8,.7,3.2,1.6,4.6c.4,.8,1,1.4,1.5,2.1c.3,.6,.7,1.1,1.1,1.6l.3,.7c.2,.7,.5,1.7,.4,2.5c0,.2,-.1,1.3,-.6,.8c-.2,-.2,-.3,-.6,-.4,-.8c-.2,-.3,-.5,-.7,-.7,-.8c-.9,-.1,-1.2,.5,-1.3,1.2c-.1,.8,-.1,1.7,-.6,2.4c-.5,.8,-.7,1,-1.6,1.3c-.4,.2,-.4,.3,0,.4c2,.5,3,.7,4.4,.7c1.1,0,2.2,-.1,3.3,-.3c1.1,-.2,1.7,-.9,1.7,-2c.4,-.1,.8,-.1,1.2,-.1c5.6,-.6,10.3,-.8,16.3,-.7l3.3,.2c.4,0,.6,-.1,.5,0c-.1,1.3,-.4,2.8,-.9,4c-1.2,2.4,-.7,5,.8,7.1c1.1,1.5,2,3.1,3.8,3.9c.3,.1,.5,.2,.8,.2l.4,.1l.5,.1c2.1,0,3.7,-1.9,4.3,-3c.3,-.7,.5,-1.2,.5,-1.9c.1,-.4,0,-.8,-.2,-1.2ZM664,128.4c-3.4,.4,-5.4,.5,-9.6,1.3l-1.5,.3l-.6,.1l-.3,-.3l-.6,-.8l-.5,-.9l-.4,-.9l-.3,-.9l-.2,-1.1c-.3,-1.4,1.5,-2.5,2.4,-3.4c1.1,-1.3,2.2,-2.7,2.9,-4.2c.2,-.3,.4,-.6,.5,-.9l.8,-1.7c.7,-1.6,1.2,-2.6,1.4,-3.9c.4,-2.6,-.7,-4.1,-.3,-5.1c.2,-.4,.5,-.7,1,-.9c.7,-.3,2,-.5,3.9,-.7c.2,.4,.3,1.2,.2,2.2c.1,.8,.2,1.5,.4,2.3l.4,2.2c1.6,6.9,4.4,11.9,9.7,16.7l.7,.7c-2.9,-.6,-6.7,-.4,-10,-.1Z" class="g2"/>
<path d="M637,129.7c0,-.9,1.6,-1.4,1.3,-2c-.2,-.5,-.8,-.6,-1.6,-.4c-1.4,.5,-2.7,3.8,-4.3,5.3c-2.1,.3,-4.1,.6,-6.2,1c-3.3,.6,-6.6,1.4,-9.9,1.9c-.8,.1,-1.7,.1,-2.4,.2c-1.5,.3,-2.4,1.3,-3.9,1.3c-1.8,0,-3.2,0,-4.9,.4c-2.6,.6,-5.1,1.1,-7.7,1.6c-3.9,.7,-7.8,1.7,-11.7,2.6c-3.9,1,-7.7,2,-11.5,2.9c-4.1,1.1,-8.1,2.1,-12.1,3.2c-4.2,1.2,-8.1,2,-11.6,4.9c0,.4,.2,.7,1.3,1c1.8,0,3.8,-.8,5.6,-.4c1.6,.3,3,.6,4.6,.7c2.4,.1,3,.5,4.8,1.9c1.3,1,2,1.3,3.6,1.3c3.4,-.1,6.7,-.6,10,-1.4l1.7,-.4l1.7,-.5l3.4,-1l1.7,-.5l1.7,-.5l2.4,-1c4.3,-1.7,8.9,-2.8,13.4,-4c2.6,-.6,5.2,-1.3,7.8,-1.9c1.1,-.2,2.2,-.6,3.4,-.7c1,-.2,2.2,.1,3.2,-.4c.9,-.5,1.6,-1.6,2.4,-2.2c2.9,-1.9,10.6,-2.7,11.2,-2.7c.9,.5,1.7,.9,2.4,1c.4,0,1.9,-2.4,2.1,-3.7c.2,-1.7,0,-5.3,-1.9,-7.5Z" class="g2"/>
<path d="M678.2,31.8l-.3,-.1c-.8,-.4,-2.2,.7,-2.7,1.3c-.9,1.3,-1.6,2.7,-2.6,3.9l-.6,.7l-.7,.8l-.8,.8l-.7,1.1L668.6,42l-1.4,2.3c-.7,1.3,-1.5,2.7,-1.5,4.2c0,.5,.1,1,.2,1.5c.1,.3,.2,.7,.3,1.1l.3,.6l.7,1.4c.2,.7,.5,1.4,.6,2.1c1,5.3,-2.2,8.2,1.7,13.5c1.8,2.5,3.7,5,5.3,7.6c.8,1.4,1.5,2.9,2.3,4.3c.6,1.3,1.2,2.6,1.5,4c.4,1.8,.3,4.2,-.4,5.9c-.5,1.3,-.4,2.7,-1.1,4c-.2,.4,-1,.5,-1.3,0c-.3,-.4,-.2,-1,-.1,-1.4c.3,-1.2,.9,-2,.8,-3.3C676.2,86.4,673.3,83.3,671,81c-2.2,-2.4,-4.5,-4.5,-6.2,-7.2c-1,-1.7,-1.7,-3.6,-1.9,-5.5c-1.3,1.4,-3.7,3.2,-7,5.1l-1,.7c-4.6,4,-7.2,9.9,-8.6,15.8l-.2,1.5c-.6,3.4,-.7,7.3,-1.8,10.5c-.7,2.2,-2.1,3.3,-3.3,5c-3,4.2,-5.8,8.5,-11.3,9.4c-5.1,.8,-10,-.4,-11.7,-5.7l-.1,-.5c-.7,-2.1,-.4,-3.9,.8,-5.7c.4,-.7,1.3,-1.7,1.9,-2.2c1.3,-.9,3.1,-1.1,3.6,-1c.4,.1,.7,.3,1,.5c.2,.2,.2,.6,.4,.7c.8,.4,1.7,-.1,2.1,.9c.8,2,-2.9,4.3,-2.9,4.3c-.9,.7,-3,1.1,-3.4,1.6c-1,1.5,.8,4,2.1,4.4c1.7,.6,3.9,.1,5.5,-.4c5.7,-1.9,8.8,-6.5,9.3,-12.3l.3,-2.4l.2,-2.3l.3,-4.6l.1,-2.3c0,-2.3,-.1,-4.6,.6,-6.8c.4,-1.6,.9,-2.9,1.6,-4.4c.5,-1,1.2,-2,1.8,-3l.9,-1.2l1.1,-1.2l1.1,-1l1.8,-1.4l1,-.6l1,-.5c2.6,-1.2,11.8,-3.1,11.7,-4.7c-.3,-2.5,-.6,-5.1,-2.1,-7.2c-.7,-.9,-1.6,-1.6,-2.2,-2.5c-1.7,-2.3,-2.7,-4.6,-2.1,-7.4c.2,-1.2,.6,-2.1,1.4,-3.1l.4,-.6c3.3,-3.3,6.8,-5.1,10.2,-8.4l1.5,-1.1c1.8,-1.6,3.7,-4,6.2,-4.4c1.2,-.1,3,.2,3.5,1.4v.4c0,.2,-.2,.3,-.4,.2Z" class="g2"/>
<path d="M673.9,43.5c.4,.5,-2.5,4.1,-2.5,4.6c-.1,.1,-.3,.2,-.5,.2c-.3,-.8,.3,-2.1,.2,-2.3c-.3,-.4,-1,0,-1.1,-.7c-.3,-.4,-.8,-.5,-.7,-1.1c.2,-1,3.6,-1.8,4.6,-.7Z" class="g2"/>
<path d="M687.7,44c0,0,.2,.1,-.1,.6c0,.1,-.1,.2,-.2,.5c-.5,.7,-3,2.6,-5,1.8c-.7,-.2,-1.3,1.6,-2.6,1.5c-.6,-.1,.1,-1,.3,-1.4c.7,-1,1,-2,1.6,-2.9c.2,-.3,.4,-.3,.6,-.4c1.1,0,2.1,-.1,3.4,.3c.2,0,.2,.1,.4,.1c.3,.1,.4,-.1,.6,-.2c.3,-.2,.8,-.4,1,.1Z" class="g2"/>
<path d="M676.2,49.9c-2.1,-1.1,-4.6,-.2,-5.8,-.2c-.4,.2,-.9,.8,1.2,2.3c.4,.4,.2,.7,.6,1c.1,.2,.9,1.9,1,2.6c0,1.1,-1,1.3,-1.3,1.6c-1.4,1.4,-2,2.9,-1.8,3.1c.4,.4,1.1,-.2,1.5,-.5c.3,-.3,.6,-.6,.9,-.8c.4,-.2,.9,-.5,1.4,-.6c.5,0,1.4,.6,1.7,1c.6,.5,1.3,.9,1.9,1.3c.3,.3,.7,.5,1.1,.6c.4,.1,.7,0,1.1,.1c.6,.1,1.1,.2,1.6,.1c.6,-.1,1,-.4,1.6,-.5c.3,0,.5,-.2,.8,-.4c.8,-.6,-.1,-1.4,-.9,-1.3c-.2,0,-.1,-.2,-.2,-.3l-.3,-.1h-.5c-.4,0,-.8,.1,-1.1,.2c-.2,.1,-.5,.1,-.7,.2c-.3,0,-.5,0,-.8,.1c-1.6,.4,-2.5,-1.8,-3.5,-2.5c-.5,-.5,-1.5,-.6,-1.5,-1.4c.2,-.7,.1,-2,1.1,-2.6c.4,-.2,.8,-.6,1.2,-.8c0,0,.5,.1,1.5,-.5c.4,-.2,1.4,-.6,1.3,-1.1c-.1,-1.2,-1.8,.5,-2.9,-.4Z" class="g2"/>
<path d="M642.1,133.2v.1c-.1,.2,0,.5,0,.7c.1,.3,.4,.6,.4,.9c.1,.7,0,1.6,-.4,2.2c-.2,.3,-.9,1.1,-1.1,1.3c-.3,.2,-.5,.4,-.7,.7c-.4,.2,.5,.2,.6,.2c.4,-.1,.7,-.4,1.1,-.5c.3,-.2,.7,-.2,1,-.2c.3,0,.7,0,1,-.1c.3,0,.6,0,.7,-.3c.3,-.6,.3,-1.3,.2,-1.9c-.1,-.7,-.5,-1.2,-.7,-1.8c-.1,-.7,-.3,-2.4,-1.3,-2.3c-.5,0,-.8,.6,-.8,1Z" class="g2"/>
<path d="M698.7,136.3c.9,.1,1.8,.1,2.7,.1c1.5,.1,3.1,.1,4.6,.2c1.8,0,3.7,.1,5.6,.2c2.1,.2,4.3,.3,6.4,.5c1.2,.1,2.3,.2,3.5,.2c.7,.1,1.5,.2,2.2,.3c.7,0,1.4,.1,2.1,-.1c.2,-.1,.5,-.2,.7,-.3c.2,-.2,.4,-.4,.6,-.6c.2,-.1,.4,-.1,.7,-.1c.4,0,.9,.2,1.3,.3c1,.3,2,.8,3,.5c.4,-.1,.6,-.2,.8,-.3c.6,-.4,2.4,.3,3,.5c1.5,.4,3.1,1,4.7,1c1.3,0,2.8,0,4,.1l2.8,.4c6,.7,12,1.4,17.8,3.2l1.7,.5c1.2,.4,2.3,.8,3.5,.9c.9,0,1.6,-.5,2.5,-.5c.8,.1,.7,.7,1.4,.9c1.3,.5,8.2,1.3,10,1.2c1.7,-.1,3.3,-1,4.9,-.2c.7,.3,1,.8,1.7,1c.7,.1,1.4,.1,2,.3c.4,.1,.6,.5,1,.6c.4,.1,.7,.3,1.1,.4c.9,.3,1.7,.5,2.6,.7c1,.2,2,.4,3,.6c1.6,.4,3.2,.7,4.9,.8c1,0,7.1,2,8.1,2.5c.4,.1,.9,.5,1.3,.6c1.6,.3,2.8,.5,3.9,.6c.8,.2,1.7,.1,2.9,-.2l-.7,-.4c-.7,-.3,-1.3,-.6,-2,-.9c-1.6,-.6,-8.5,-3.5,-10.6,-4.1c-2.6,-.7,-5.2,-1.4,-7.8,-2.2c-2.6,-.7,-5.3,-1.5,-7.9,-2.2c-2.1,-.6,-4.1,-1.2,-6.1,-1.8c-.9,-.2,-1.7,-.4,-2.5,-.7l-5.6,-1.5c-9.3,-2.7,-18.9,-3.3,-28.4,-4.5l-3.8,-.3c-3.3,-.3,-7.9,0,-10.7,-1.9c.3,-.3,.9,-.4,1.4,-.3c.4,.1,.6,.3,1,.4c1.5,.5,3.5,.2,5.1,.1c1,0,2.1,0,3.2,-.1c.3,-.1,1.7,0,2.2,.1c.9,.1,1.7,0,2.6,0c.7,0,4,.5,4.6,.6c1.7,0,3.6,.6,5.3,.9c1.2,.2,2.3,.4,3.5,.5c.9,.2,1.8,.1,2.6,.2c1,.1,1.6,.6,2.5,.8c.6,.2,1,0,1.6,0c1.1,-.2,1.4,.2,2.4,.5c.8,.3,1.8,.1,2.7,.2c.9,.1,1.9,.5,2.8,.7c2.2,.5,4.4,1,6.5,1.6c2.4,.6,4.8,1.2,7.2,1.8c2,.4,4,.9,5.9,1.4c.8,.2,2.1,.4,2.1,.3c0,-.5,-1.3,-.7,-2.2,-1.1c-.8,-.3,-1.3,-.9,-1.5,-1.2c-.2,-.2,-.7,-.2,-1,-.2c-.6,0,-1.9,.1,-2.4,-.4c-.4,-.3,-2.3,-.9,-2.8,-1c-.7,-.1,-1.4,-.3,-2.1,-.4c-3.8,-1.2,-7.3,-2.4,-11.3,-3.3c-3.1,-.7,-26,-3.6,-26.4,-3.8c-1.7,-.6,-13.4,-.9,-17.2,-1.4c-2.2,-.3,-4.4,-.5,-6.5,-1.1c-1.4,-.4,-2.7,.6,-4.2,.6c-.4,0,-.8,-.4,-1.3,-.5c-1.5,-.4,-3.1,-.3,-4.7,-.3l-1.4,-.1h-1.4l-8.7,-.8h-3.4l.7,-1.1c.6,-.8,1.2,-1.6,1.7,-2.5c2.1,-3,3.7,-6.6,4.5,-10.2c.8,-3.7,.6,-7.5,.3,-11.3c-.2,-2.3,-.6,-4.7,-.6,-7c0,-1.5,-.2,-2.9,-.1,-4.4c0,-1.2,.7,-2.6,.5,-3.8c0,-.2,-.1,-.5,-.2,-.6c-.2,-.3,-.4,-.4,-.6,-.3c-.1,1.1,-1.1,2,-1.4,3c-1.3,3.6,-.4,7.9,-.7,11.7c-.4,4,-1.3,8,-2.9,11.7c-1.3,3.1,-3.1,6,-4.3,9.2c-1.3,3.3,-3.3,6.7,-3.3,10.4c-.2,2.9,-.1,5.7,.3,8.6c.1,1.1,.5,2.2,.5,3.3c.1,1,.2,1.9,-.2,2.8c-.3,.8,-1.1,1.5,-1.7,2.1c-.4,.5,-.9,.9,-1.6,1.3c-.3,.2,.2,1.6,.6,1.5c.8,-.2,1.6,-.4,2.4,-.7c1.3,-.6,2.6,-1.6,3.6,-2.7l.5,-.5c.8,-1.4,.9,-2.8,.6,-4.4c-.1,-.8,-.5,-1.6,-.8,-2.4c-.3,-.5,-.9,-2.1,-.9,-2.2c-.1,-.3,-.2,-.6,-.3,-.9l-.1,-1Z" class="g2"/>
<path d="M44.9,150.3C52.4,153.4,58,155.8,58,165c0,8.8,-5.7,14.4,-14.7,14.4c-9.3,0,-14.2,-6.6,-14,-15.7h4.3c0,6.4,2.6,11.8,9.7,11.8c6.2,0,10.2,-4,10.2,-10.3c0,-7.7,-5.5,-9,-11.4,-11.3C35.2,151.2,30.3,148.1,30.3,140c0,-8.4,5,-14.2,13.3,-14.2c8,0,13.2,5.6,13,13.6H52.3c.3,-5.6,-3,-9.6,-8.8,-9.6c-5.8,0,-8.8,4.3,-8.8,9.9c0,5,1.7,7,6.2,9Z" class="g1"/>
<path d="M65.6,127.1H70v37c0,7.3,1.7,11.4,9.4,11.4c7.9,0,9.7,-4.9,9.7,-11.8V127.1h4.5v35.5c0,10,-3,16.8,-14.1,16.8c-9.8,0,-13.9,-5.4,-13.9,-14.7Z" class="g1"/>
<path d="M116.9,150.3c7.5,3.1,13,5.5,13,14.7c0,8.8,-5.7,14.4,-14.6,14.4c-9.3,0,-14.3,-6.6,-14,-15.7h4.3c-.1,6.4,2.6,11.8,9.6,11.8c6.2,0,10.3,-4,10.3,-10.3c0,-7.7,-5.6,-9,-11.4,-11.3c-6.9,-2.7,-11.8,-5.8,-11.8,-13.9c0,-8.4,4.9,-14.2,13.3,-14.2c7.9,0,13.2,5.6,13,13.6h-4.3c.3,-5.6,-3.1,-9.6,-8.8,-9.6c-5.8,0,-8.8,4.3,-8.8,9.9c0,5,1.6,7,6.2,9Z" class="g1"/>
<path d="M134,131v-3.9h27.6V131H150v47.2h-4.5V131Z" class="g1"/>
<path d="M167.4,178.2V127.1h23.2V131H171.9v18.4h17v4h-17v20.8h19v4Z" class="g1"/>
<path d="M221.9,171h.2V127.1h4.4v51.1h-5.4L202.2,134.4H202v43.8h-4.4V127.1h5.5Z" class="g1"/>
<path d="M232.4,131v-3.9H260V131H248.4v47.2H244V131Z" class="g1"/>
<path d="M277.1,127.1l13.7,51.1h-4.5l-4,-15.8H266.8l-4.2,15.8h-4.3L272,127.1Zm4.3,31.4l-6.8,-25.8h-.1l-6.8,25.8ZM270.3,123.4l7.6,-9.5h5.3l-9.4,9.5Z" class="g1"/>
<path d="M290,127.1h4.7l11.4,45.3h.1L318,127.1h4.3l-13.6,51.1h-5Z" class="g1"/>
<path d="M330.3,178.2V127.1h23.2V131H334.8v18.4h17v4h-17v20.8h19.1v4Z" class="g1"/>
<path d="M361.5,178.2h4.4V127.1h-4.4v51.1Z" class="g1"/>
<path d="M388.9,150.3c7.5,3.1,13.1,5.5,13.1,14.7c0,8.8,-5.7,14.4,-14.7,14.4c-9.3,0,-14.2,-6.6,-14,-15.7h4.4c-.1,6.4,2.6,11.8,9.6,11.8c6.2,0,10.3,-4,10.3,-10.3c0,-7.7,-5.6,-9,-11.5,-11.3c-6.9,-2.7,-11.8,-5.8,-11.8,-13.9c0,-8.4,5,-14.2,13.3,-14.2c8,0,13.2,5.6,13,13.6h-4.3c.3,-5.6,-3,-9.6,-8.8,-9.6c-5.8,0,-8.7,4.3,-8.7,9.9c0,5,1.6,7,6.2,9Z" class="g1"/>
<path d="M29.9,109.4V55.3H50.5c9.7,0,12.6,7.8,12.6,15.4c0,4.6,-1.2,9.8,-5,12.8C54.9,86,50.6,86.8,46.7,86.8H40v22.6ZM40,78.8h5.4c4.4,0,7.3,-1.8,7.3,-8.4c0,-6.2,-2.4,-7.2,-8.1,-7.2H40Z" class="g1"/>
<path d="M66.7,109.4L79.6,55.3H93.3l12.2,54.1H94.7L92.1,95.7H80.2l-2.7,13.7ZM81.8,87.8h8.7L87.7,72.4c-.5,-2.5,-.7,-5,-1,-7.5c-.1,-1.2,-.2,-2.5,-.3,-3.6h-.2c-.1,1.1,-.3,2.4,-.4,3.6c-.2,2.5,-.5,5,-1,7.5Z" class="g1"/>
<path d="M128.9,86.1v23.3H118.8V55.3h19.1c8.7,0,15.4,3,15.4,13c0,5.9,-1.5,12.1,-8.3,13.1v.1c6,.8,7.8,4.6,7.8,9.8c0,2.3,-.3,15.5,2.1,17.1v1H143.8c-1.2,-3.4,-1,-10.1,-1.1,-13.7c0,-3.3,0,-7.8,-3.4,-8.9c-2.8,-.8,-5.7,-.7,-8.6,-.7Zm0,-7.9h7.9c3.3,-.2,5.9,-2.4,5.9,-7.8c0,-6.1,-2.5,-7.1,-6.3,-7.2h-7.5Z" class="g1"/>
<path d="M201.3,90.2c-.1,1,-.2,2.1,-.2,3.1c-.5,9.9,-3.9,17.4,-15.1,17.4c-16.6,0,-17.7,-10.5,-17.7,-24.9V78c.4,-13.8,1.5,-24,17.7,-24c9,.1,14.1,4.8,14.8,14c.1,1.4,.3,2.7,.2,4.1H191c-.4,-3.4,0,-9.9,-5,-9.9c-8,0,-7.3,9.4,-7.3,13.6v15c0,4.5,.4,11.8,7.3,11.8c5.5,0,4.9,-9,5.1,-12.4Z" class="g1"/>
<path d="M213.4,109.4V55.3h28.4v7.9H223.5V76.9h16.9v7.9H223.5v16.7h18.3v7.9Z" class="g1"/>
<path d="M264.1,86.1v23.3H254V55.3h19.1c8.7,0,15.4,3,15.4,13c0,5.9,-1.5,12.1,-8.3,13.1v.1c6,.8,7.8,4.6,7.8,9.8c0,2.3,-.3,15.5,2.1,17.1v1H279C277.8,106,278,99.3,277.9,95.7c0,-3.3,0,-7.8,-3.4,-8.9c-2.8,-.8,-5.7,-.7,-8.6,-.7Zm0,-7.9H272c3.3,-.2,5.9,-2.4,5.9,-7.8c0,-6.1,-2.5,-7.1,-6.3,-7.2h-7.5Z" class="g1"/>
<path d="M302.6,55.3h10.1v54.1H302.6V55.3Z" class="g1"/>
<path d="M322.7,109.4L335.6,55.3h13.6l12.3,54.1H350.7L348,95.7H336.2l-2.7,13.7ZM337.8,87.8h8.6L343.7,72.4c-.5,-2.5,-.7,-5,-1,-7.5c-.1,-1.2,-.2,-2.5,-.4,-3.6h-.1c-.2,1.1,-.3,2.4,-.4,3.6c-.3,2.5,-.5,5,-1,7.5Z" class="g1"/>
<path d="M392,71.8c.1,-4.9,-.3,-9.6,-5.9,-9.6c-3.4,0,-5.5,1.3,-5.5,5c0,4.1,2.6,5.7,5.7,7.7c3.4,2.1,9.5,6.2,12.3,8.9c3.5,3.4,4.6,6.6,4.6,11.3c0,10.3,-6.8,15.6,-16.7,15.6C374.4,110.7,370,103.9,370,94.3v-4h10.1v3.2c-.2,5.2,1.4,9.1,6.4,9.1c4.2,0,6.3,-2.3,6.3,-6.4c0,-3.2,-1.5,-5.3,-4.1,-7.1C383.4,85,376.9,82,372.8,76.6c-1.7,-2.5,-2.6,-5.4,-2.6,-8.3C370.2,59.1,375.4,54,386,54c16.1,0,15.7,12.4,15.8,17.8Z" class="g1"/>

</g>
</svg>
