<?xml version="1.0" encoding="utf-8"?>
<!-- Generator: Adobe Illustrator 24.1.2, SVG Export Plug-In . SVG Version: 6.00 Build 0)  -->
<svg version="1.1" id="Layer_1" xmlns="http://www.w3.org/2000/svg" xmlns:xlink="http://www.w3.org/1999/xlink" x="0px" y="0px"
	 viewBox="0 0 100 163.8" style="enable-background:new 0 0 100 163.8;" xml:space="preserve">
<style type="text/css">
	.st0{fill:#FFFFFF;}
	.st1{fill:#00A745;}
	.st2{fill:#38BA6D;}
	.st3{fill:#038939;}
</style>
<g>
	<g>
		<path class="st0" d="M50,5.3C23.7,5.3,2.5,26.6,2.5,52.9s47.6,110.6,47.6,110.6S97.5,79.1,97.5,52.9S76.3,5.3,50,5.3z"/>
	</g>
</g>
<g>
	<g>
		<path class="st1" d="M50,1.5C22.4,1.5,0.1,23.9,0.1,51.4s50,115.9,50,115.9S99.9,79,99.9,51.4S77.6,1.5,50,1.5z M60.1,69h-5.4
			v33.9c0,0,0,0.1,0,0.1c0,1.5-1.2,2.7-2.7,2.7c-1.5,0-2.7-1.2-2.7-2.7c0,0,0-0.1,0-0.1l0,0V88h-5.4C33.4,88,25,79.5,25,69
			c0-1.5,1.2-2.7,2.7-2.7h8.1c5.1,0,10,2.1,13.5,5.7V51.2h-5.4C33.4,51.2,25,42.7,25,32.2c0-1.5,1.2-2.7,2.7-2.7h8.1
			c10.5,0,18.9,8.5,18.9,18.9v4.6c3.6-3.6,8.4-5.7,13.5-5.7h8.1c1.5,0,2.7,1.2,2.7,2.7C79,60.5,70.6,69,60.1,69z"/>
	</g>
</g>
<g>
	<g>
		<path class="st2" d="M50,9.5c23.1,0,41.9,18.8,41.9,41.9c0,5.7-3.1,21.8-24.1,64.7c-6.5,13.3-13.1,25.8-17.8,34.6
			c-4.7-8.8-11.3-21.2-17.8-34.6C11.2,73.2,8.1,57.2,8.1,51.4C8.1,28.3,26.9,9.5,50,9.5 M37.4,58.4c-0.5,0-1.1,0-1.6,0h-8.1
			C21.8,58.3,17,63.1,17,69c0,14,10.7,25.5,24.3,26.8v7.1c0,0,0,0,0,0c0,0,0,0,0,0c0,5.9,4.8,10.7,10.7,10.7s10.7-4.8,10.7-10.7
			c0-0.2,0-0.3,0-0.5V76.9C76.3,75.6,87,64.1,87,50.1c0-5.9-4.8-10.7-10.7-10.7h-8.1c-2.3,0-4.6,0.3-6.8,0.9
			C58,29.4,47.8,21.5,35.8,21.5h-8.1c-5.9,0-10.7,4.8-10.7,10.7C17,44.8,25.7,55.5,37.4,58.4 M50,1.5C22.4,1.5,0.1,23.9,0.1,51.4
			s50,115.9,50,115.9S99.9,79,99.9,51.4S77.6,1.5,50,1.5L50,1.5z M43.9,51.2C33.4,51.2,25,42.7,25,32.2c0-1.5,1.2-2.7,2.7-2.7h8.1
			c10.5,0,18.9,8.5,18.9,18.9v4.6c3.6-3.6,8.4-5.7,13.5-5.7h8.1c1.5,0,2.7,1.2,2.7,2.7C79,60.5,70.6,69,60.1,69h-5.4v33.9
			c0,0,0,0.1,0,0.1c0,1.5-1.2,2.7-2.7,2.7c-1.5,0-2.7-1.2-2.7-2.7c0,0,0-0.1,0-0.1l0,0V88h-5.4C33.4,88,25,79.5,25,69
			c0-1.5,1.2-2.7,2.7-2.7h8.1c0,0,0,0,0,0c5.1,0,10,2.1,13.5,5.7V51.2H43.9L43.9,51.2z"/>
	</g>
</g>
<g>
	<g>
		<path class="st3" d="M50,5.5c25.3,0,45.9,20.6,45.9,45.9c0,7.4-4.3,25-24.5,66.5c-8.4,17.1-16.8,32.8-21.4,41.1
			c-4.6-8.3-13-24-21.4-41.1C8.3,76.5,4.1,58.9,4.1,51.4C4.1,26.1,24.7,5.5,50,5.5 M43.9,55.2h1.4v9.2c-3-1.4-6.2-2.1-9.5-2.1h-8.1
			c-3.7,0-6.7,3-6.7,6.7C21,81.7,31.3,92,43.9,92h1.4l0,10.8c0,0.1,0,0.2,0,0.3c0,3.7,3,6.7,6.7,6.7c3.7,0,6.7-3,6.7-6.7
			c0-0.1,0-0.2,0-0.3V73h1.4C72.7,73,83,62.7,83,50.1c0-3.7-3-6.7-6.7-6.7h-8.1c-3.4,0-6.7,0.8-9.7,2.2c-1.4-11.3-11.1-20-22.7-20
			h-8.1c-3.7,0-6.7,3-6.7,6.7C21,44.9,31.3,55.2,43.9,55.2 M50,1.5C22.4,1.5,0.1,23.9,0.1,51.4s50,115.9,50,115.9S99.9,79,99.9,51.4
			S77.6,1.5,50,1.5L50,1.5z M43.9,51.2C33.4,51.2,25,42.7,25,32.2c0-1.5,1.2-2.7,2.7-2.7h8.1c10.5,0,18.9,8.5,18.9,18.9v4.6
			c3.6-3.6,8.4-5.7,13.5-5.7h8.1c1.5,0,2.7,1.2,2.7,2.7C79,60.5,70.6,69,60.1,69h-5.4v33.9c0,0,0,0.1,0,0.1c0,1.5-1.2,2.7-2.7,2.7
			c-1.5,0-2.7-1.2-2.7-2.7c0,0,0-0.1,0-0.1l0-11.3V88h-5.4C33.4,88,25,79.5,25,69c0-1.5,1.2-2.7,2.7-2.7h8.1c0,0,0,0,0,0
			c5.1,0,10,2.1,13.5,5.7V51.2H43.9L43.9,51.2z"/>
	</g>
</g>
</svg>
