<?xml version="1.0" encoding="UTF-8"?>
<!DOCTYPE svg PUBLIC "-//W3C//DTD SVG 1.1//EN" "http://www.w3.org/Graphics/SVG/1.1/DTD/svg11.dtd">
<!-- Creator: CorelDRAW -->
<svg xmlns="http://www.w3.org/2000/svg" xml:space="preserve" width="200px" height="30px" version="1.1" style="shape-rendering:geometricPrecision; text-rendering:geometricPrecision; image-rendering:optimizeQuality; fill-rule:evenodd; clip-rule:evenodd"
viewBox="0 0 200 30.28"
 xmlns:xlink="http://www.w3.org/1999/xlink"
 xmlns:xodm="http://www.corel.com/coreldraw/odm/2003">
 <defs>
  <style type="text/css">
   <![CDATA[
    .fil0 {fill:#2D354D;fill-rule:nonzero}
   ]]>
  </style>
 </defs>
 <g id="Layer_x0020_1">
  <metadata id="CorelCorpID_0Corel-Layer"/>
  <g id="_105553724339648">
   <path class="fil0" d="M13.13 21.89c0.78,0 1.38,-0.2 1.77,-0.61 0.4,-0.41 0.59,-1.06 0.59,-1.97l0 -10.51c0,-0.9 -0.19,-1.56 -0.59,-1.97 -0.39,-0.4 -0.99,-0.6 -1.77,-0.6 -0.79,0 -1.38,0.2 -1.78,0.6 -0.39,0.41 -0.59,1.07 -0.59,1.97l0 10.51c0,0.91 0.2,1.56 0.59,1.97 0.4,0.41 0.99,0.61 1.78,0.61zm13.29 -8.88c0,1.3 -0.14,2.43 -0.43,3.38 -0.29,0.95 -0.64,1.76 -1.05,2.44 -0.4,0.67 -0.82,1.23 -1.25,1.67 -0.43,0.44 -0.78,0.78 -1.06,1.04l0.21 0.35 4.14 0 0 8.42c-3.67,0 -6.7,-0.07 -9.1,-0.23 -2.4,-0.15 -4.39,-0.4 -5.97,-0.74 -1.58,-0.35 -2.91,-0.77 -4.01,-1.26 -0.69,-0.27 -1.53,-0.74 -2.52,-1.39 -0.98,-0.65 -1.95,-1.59 -2.9,-2.82 -0.96,-1.23 -1.63,-2.64 -2.04,-4.24 -0.41,-1.61 -0.61,-3.46 -0.61,-5.57 0,-2.53 0.31,-4.69 0.94,-6.48 0.63,-1.78 1.51,-3.23 2.66,-4.35 1.15,-1.11 2.55,-1.92 4.2,-2.43 1.64,-0.51 3.48,-0.77 5.5,-0.77 2.01,0 3.85,0.26 5.5,0.78 1.64,0.53 3.04,1.32 4.19,2.39 1.15,1.06 2.04,2.42 2.66,4.05 0.63,1.64 0.94,3.56 0.94,5.76z"/>
   <path class="fil0" d="M36.61 19.66c0,0.79 0.17,1.36 0.5,1.71 0.34,0.34 0.84,0.52 1.52,0.52 0.67,0 1.17,-0.18 1.51,-0.52 0.34,-0.35 0.51,-0.92 0.51,-1.71l0 -5.71 -1.88 0 0 -5.71 9.88 0 0 13.65 1.53 0 0 5.71 -9.53 0 0 -2.37c-0.28,0.3 -0.6,0.61 -0.96,0.94 -0.36,0.32 -0.77,0.63 -1.24,0.9 -0.46,0.28 -1,0.52 -1.6,0.72 -0.6,0.19 -1.3,0.29 -2.09,0.29 -1.9,0 -3.4,-0.68 -4.5,-2.03 -1.11,-1.36 -1.66,-3.49 -1.66,-6.39l0 -5.71 -1.53 0 0 -5.71 9.54 0 0 11.42z"/>
   <path class="fil0" d="M60.79 7.76c1.78,0 3.27,0.26 4.45,0.78 1.18,0.52 2.14,1.2 2.85,2.04 0.72,0.83 1.23,1.78 1.52,2.85 0.29,1.07 0.43,2.15 0.43,3.24l0 2.5 -11.27 0 0 0.21c0,0.84 0.23,1.46 0.71,1.88 0.48,0.42 1.34,0.63 2.59,0.63 1.53,0 2.94,-0.12 4.21,-0.35 1.28,-0.23 2.34,-0.49 3.17,-0.77l0 5.57c-0.42,0.21 -0.9,0.42 -1.44,0.61 -0.55,0.2 -1.17,0.39 -1.86,0.56 -0.7,0.17 -1.49,0.31 -2.37,0.42 -0.88,0.1 -1.88,0.15 -2.99,0.15 -1.61,0 -3.06,-0.21 -4.35,-0.62 -1.3,-0.42 -2.41,-1.05 -3.33,-1.9 -0.92,-0.85 -1.62,-1.9 -2.1,-3.17 -0.49,-1.26 -0.74,-2.75 -0.74,-4.47 0,-1.69 0.25,-3.18 0.74,-4.45 0.48,-1.28 1.18,-2.34 2.1,-3.19 0.92,-0.85 2.03,-1.48 3.33,-1.9 1.29,-0.41 2.74,-0.62 4.35,-0.62zm0 6.19c-0.68,0 -1.18,0.18 -1.52,0.52 -0.33,0.35 -0.5,0.92 -0.5,1.71l0 0.21 4.03 0 0 -0.21c0,-0.79 -0.16,-1.36 -0.5,-1.71 -0.34,-0.34 -0.84,-0.52 -1.51,-0.52z"/>
   <path class="fil0" d="M94.36 11.93c0.65,0 1.15,-0.17 1.5,-0.52 0.35,-0.35 0.52,-0.91 0.52,-1.7l0 -1.26c0,-0.79 -0.17,-1.35 -0.5,-1.7 -0.34,-0.35 -0.85,-0.52 -1.52,-0.52l-1.18 0 0 5.7 1.18 0zm2.16 15.67l-15.18 0 0 -5.71 2.09 0 0 -15.66 -2.09 0 0 -5.71 15.63 0c1.42,0 2.7,0.14 3.85,0.43 1.15,0.29 2.11,0.76 2.9,1.41 0.79,0.65 1.4,1.5 1.83,2.54 0.43,1.05 0.65,2.31 0.65,3.8 0,1.51 -0.22,2.78 -0.65,3.81 -0.43,1.03 -1.04,1.87 -1.83,2.52 -0.79,0.65 -1.75,1.12 -2.9,1.41 -1.15,0.29 -2.43,0.44 -3.85,0.44l-3.79 0 0 5.01 3.34 0 0 5.71z"/>
   <polygon class="fil0" points="106.01,0.52 115.55,0.52 115.55,21.89 117.08,21.89 117.08,27.6 106.01,27.6 106.01,21.89 107.54,21.89 107.54,6.23 106.01,6.23 "/>
   <path class="fil0" d="M129.7 25.23c-0.21,0.28 -0.49,0.59 -0.84,0.92 -0.34,0.34 -0.77,0.65 -1.27,0.92 -0.5,0.28 -1.08,0.52 -1.74,0.72 -0.66,0.19 -1.41,0.29 -2.24,0.29 -2.02,0 -3.6,-0.46 -4.74,-1.39 -1.13,-0.93 -1.7,-2.27 -1.7,-4.04 0,-2.2 1.03,-3.87 3.08,-4.99 2.05,-1.13 5.2,-1.69 9.45,-1.69 0,-0.65 -0.21,-1.15 -0.63,-1.5 -0.42,-0.34 -1.27,-0.52 -2.57,-0.52 -1.39,0 -2.79,0.11 -4.2,0.32 -1.4,0.2 -2.69,0.44 -3.88,0.69l0 -5.98c1.19,-0.33 2.64,-0.61 4.35,-0.86 1.72,-0.24 3.48,-0.36 5.29,-0.36 1.86,0 3.41,0.17 4.65,0.52 1.24,0.35 2.23,0.88 2.98,1.58 0.74,0.71 1.26,1.59 1.56,2.65 0.3,1.05 0.45,2.28 0.45,3.67l0 5.71 1.54 0 0 5.71 -9.54 0 0 -2.37zm0 -5.78c-1.44,0 -2.47,0.1 -3.1,0.3 -0.62,0.19 -0.94,0.54 -0.94,1.02 0,0.75 0.64,1.12 1.92,1.12 1.41,0 2.12,-0.74 2.12,-2.23l0 -0.21z"/>
   <path class="fil0" d="M151.65 21.89l1.53 0 0 -5.71c0,-0.79 -0.17,-1.36 -0.5,-1.71 -0.34,-0.34 -0.84,-0.52 -1.52,-0.52 -0.67,0 -1.18,0.18 -1.51,0.52 -0.34,0.35 -0.51,0.92 -0.51,1.71l0 5.71 1.53 0 0 5.71 -11.06 0 0 -5.71 1.53 0 0 -7.94 -1.53 0 0 -5.71 9.53 0 0 2.37c0.28,-0.28 0.6,-0.58 0.94,-0.92 0.35,-0.34 0.76,-0.65 1.24,-0.92 0.47,-0.28 1.01,-0.52 1.62,-0.72 0.6,-0.19 1.3,-0.29 2.09,-0.29 1.9,0 3.4,0.68 4.5,2.03 1.11,1.36 1.66,3.49 1.66,6.39l0 5.71 1.53 0 0 5.71 -11.07 0 0 -5.71z"/>
   <path class="fil0" d="M172.63 8.24l4.69 0 0 5.71 -4.69 0 0 5.71c0,0.79 0.16,1.36 0.5,1.71 0.34,0.34 0.84,0.52 1.51,0.52 0.93,0 1.9,-0.11 2.89,-0.32l0 5.47c-0.74,0.28 -1.63,0.52 -2.66,0.73 -1.03,0.21 -2.14,0.31 -3.32,0.31 -1.19,0 -2.24,-0.12 -3.15,-0.38 -0.92,-0.25 -1.69,-0.69 -2.32,-1.3 -0.62,-0.62 -1.11,-1.43 -1.44,-2.42 -0.34,-1 -0.51,-2.24 -0.51,-3.73l0 -6.3 -1.53 0 0 -5.71c0.93,0 1.6,-0.23 2.02,-0.71 0.42,-0.47 0.63,-1.08 0.63,-1.83l0 -1.56 7.38 0 0 4.1z"/>
   <path class="fil0" d="M190.29 25.23c-0.2,0.28 -0.48,0.59 -0.83,0.92 -0.35,0.34 -0.77,0.65 -1.27,0.92 -0.5,0.28 -1.08,0.52 -1.74,0.72 -0.66,0.19 -1.41,0.29 -2.25,0.29 -2.02,0 -3.59,-0.46 -4.73,-1.39 -1.14,-0.93 -1.71,-2.27 -1.71,-4.04 0,-2.2 1.03,-3.87 3.08,-4.99 2.06,-1.13 5.21,-1.69 9.45,-1.69 0,-0.65 -0.2,-1.15 -0.62,-1.5 -0.42,-0.34 -1.28,-0.52 -2.58,-0.52 -1.39,0 -2.79,0.11 -4.19,0.32 -1.41,0.2 -2.7,0.44 -3.88,0.69l0 -5.98c1.18,-0.33 2.63,-0.61 4.35,-0.86 1.72,-0.24 3.48,-0.36 5.29,-0.36 1.86,0 3.4,0.17 4.65,0.52 1.24,0.35 2.23,0.88 2.97,1.58 0.74,0.71 1.27,1.59 1.57,2.65 0.3,1.05 0.45,2.28 0.45,3.67l0 5.71 1.53 0 0 5.71 -9.54 0 0 -2.37zm0 -5.78c-1.43,0 -2.47,0.1 -3.09,0.3 -0.63,0.19 -0.94,0.54 -0.94,1.02 0,0.75 0.64,1.12 1.91,1.12 1.42,0 2.12,-0.74 2.12,-2.23l0 -0.21z"/>
  </g>
 </g>
</svg>
