<svg width="9243" height="9665" xmlns="http://www.w3.org/2000/svg">
  <defs>
    <path id="svg_2" d="M292.001 555.999h134.998v-164H292.001v-164c0-22.6662 4.83326-38.9992 14.4998-48.9988 9.66652-9.9996 24.1663-15.0006 43.4993-15.0006 26.6656 0 54.3328 3.00011 82.9993 9.00034v-157.001c-21.3339-7.99875-46.8325-15.0006-76.4983-21.0008-29.6681-5.9979-61.5-8.99801-95.5005-8.99801s-64.167 3.66629-90.4996 10.9989c-26.3349 7.33258-48.5003 19.8338-66.501 37.4991-18.0007 17.6676-31.8343 40.8346-41.5008 69.5011-9.66652 28.6665-14.4998 64.3324-14.4998 107v180.999H3.9993v164c26.6679 0 46.001 6.83411 58.0014 20.5 11.9981 13.6682 17.9984 31.1681 17.9984 52.4997v45.0017h212.002v-118.001l-.0001.00037z"/>
    <path id="svg_3" d="M362.001 164h44.0001v164c0 22.6662-4.83326 38.9992-14.4998 49.0011-9.66652 9.9996-24.1686 14.9982-43.5017 14.9982-19.333 0-33.8328-4.99864-43.4993-14.9982-9.66652-10.0019-14.4998-26.3349-14.4998-49.0011V164h44.0001V0h-318v164h44.0001v227.999H16.0006v164h274v-67.9987c7.99875 7.99875 16.9991 16.8337 26.9987 26.5002 10.0019 9.66652 21.8347 18.4992 35.5006 26.4979 13.6682 8.00108 29.1673 14.8352 46.4994 20.5 17.3345 5.66714 37.3337 8.50188 60 8.50188 54.6682 0 97.8345-19.5007 129.501-58.4999 31.6666-39.0015 47.501-100.168 47.501-183.501v-164h44.0001v-164h-318v164L362.001 164z"/>
    <path id="svg_4" d="M309.999 570.001c51.335 0 94.0005-7.50029 128.001-22.5009 34.0005-15.0006 61.3323-34.499 82-58.4999 20.6654-24.0009 35.1652-51.3327 43.4993-82 8.33417-30.6673 12.5013-61.6677 12.5013-92.9989v-72.0004h-324.001v-6.00023c0-24.0009 6.83411-42.0016 20.5-53.9997 13.6659-12.0005 38.5007-18.0007 74.4997-18.0007 44.0001 0 84.334 3.3332 120.999 9.9996 36.6675 6.6664 67.0018 14.0013 91.0004 22.0001v-160.001c-12.0005-5.9979-25.8317-11.8327-41.4985-17.4999-15.6667-5.66481-33.5021-10.9989-53.5013-15.9998-19.9992-4.99864-42.6654-9.00034-67.9987-12.0005-25.3356-2.99778-54.0021-4.49784-86.0017-4.49784-45.9986 0-87.6672 5.9979-124.999 17.9984-37.3337 12.0005-69.168 30.1665-95.5005 54.5005-26.3325 24.334-46.4994 54.6659-60.5007 91.0004-13.999 36.3321-20.9985 79.1653-20.9985 128.499 0 48.668 6.99949 91.3334 20.9985 128.001 14.0013 36.6652 34.1682 67.1648 60.5007 91.4988 26.3325 24.334 58.1668 42.5001 95.5005 54.5005 37.3314 12.0005 78.9999 18.0007 124.999 18.0007l.0005.00077zm-.0005-178.00177c-19.333 0-33.8328-4.99864-43.4993-14.9982-9.66652-10.0019-14.4998-26.3349-14.4998-49.0011v-6.00023h116.001v6.00023c0 22.6662-4.83326 38.9992-14.4998 49.0011-9.66885 9.9996-24.1686 14.9982-43.5017 14.9982h-.0004z"/>
    <path id="svg_5" d="M398 164c22.6662 0 39.6677 5.83252 50.9996 17.4999 11.3343 11.6674 17.0014 30.4996 17.0014 56.499v302.001c0 25.9994-5.66714 44.834-17.0014 56.5014-11.332 11.665-28.3334 17.4999-50.9996 17.4999s-39.6653-5.83485-50.9996-17.4999c-11.3343-11.6674-16.9991-30.5019-16.9991-56.5014v-302.001c0-25.9994 5.66481-44.8317 16.9991-56.499C358.3347 169.8325 375.3338 164 398 164zm382 255c0-37.3337-4.16708-69.6665-12.4989-97.0006-8.33417-27.3341-18.3338-50.6665-30.0011-69.9996-11.665-19.333-23.6655-35.3329-35.999-47.9995-12.3335-12.6666-22.5009-22.6686-30.4996-30.0011l6.00023-9.9996h118.998v-242.001c-105.332 0-192.499 2.16623-261.499 6.50102-69.0003 4.33246-126.168 11.4997-171.5 21.4993-45.3325 9.9996-83.6655 22.0001-114.999 36.0014-20.0015 7.99875-44.1678 21.3316-72.5012 39.9984-28.3334 18.6669-56.166 45.6679-83.5001 81.0008-27.3341 35.3329-46.8325 75.9998-58.4999 122.001-11.6674 45.9986-17.4999 99.3322-17.4999 159.998 0 72.6666 9.00034 134.667 27.001 186 17.9984 51.335 43.4993 93.0012 76.4983 125.001 33.0013 31.9997 73.1674 55.3321 120.501 69.9996 47.3333 14.6675 100.001 22.0001 158 22.0001 58.0014 0 110.666-7.50029 158-22.5009 47.3333-14.9982 87.4994-37.8322 120.501-68.4995 32.9989-30.6673 58.4999-69.4988 76.5006-116.499 17.9984-47.0002 26.9987-102.167 26.9987-165.5L780 419z"/>
    <path id="svg_6" d="M275.999 227.999c0-22.6662 4.83559-38.9992 14.5021-48.9988 9.66652-9.9996 24.1663-15.0006 43.4993-15.0006s33.8328 5.00097 43.4993 15.0006c9.66652 9.9996 14.4998 26.3325 14.4998 48.9988v164h-53.9997v164h284V164h44.0001V0h-274v68.001c-7.99875-8.66726-17.1668-17.6676-27.4995-27.001-10.3327-9.33343-22.1654-18.0007-35.5006-25.9994-13.3328-8.00108-28.6665-14.8329-45.9986-20.5-17.3345-5.66714-37.3337-8.49955-60-8.49955-54.6682 0-97.8345 19.4984-129.501 58.4999-31.6666 38.9992-47.4987 100.166-47.4987 183.498v164H2.0014v164h273.998v-328l-.0004.00005z"/>
    <path id="svg_7" d="M368.001 68.001c-6.00023-8.00108-14.0013-16.8337-24.0009-26.5002-9.9996-9.66652-22.1654-18.5015-36.4998-26.5002C293.1659 6.99952 276.4999.1677 257.5-5.4994c-18.9999-5.66714-40.4992-8.49955-64.5001-8.49955-57.9991 0-103.334 13.3328-136 39.9984-32.6658 26.6679-48.9988 65.334-48.9988 116.001 0 63.3332 29.498 111.167 88.4987 143.5 59.0007 32.3328 149.5 48.5003 271.501 48.5003 0 18.6669-6.00023 32.9989-18.0007 43.0009-12.0005 9.9996-36.6675 14.9982-74.0013 14.9982-39.9984 0-80.1645-3.00011-120.498-9.00034-40.3338-5.9979-77.4998-12.6666-111.5-19.9992v172.001c34.0005 9.33343 75.6667 17.4999 125.001 24.4994 49.3318 6.99949 99.9984 10.5004 152 10.5004 53.3336 0 97.8321-5.00097 133.5-15.0006 35.666-9.9996 64.1647-25.1679 85.4986-45.5002s36.3345-45.6656 44.9994-75.9998c8.66726-30.3342 13.002-65.4994 13.002-105.5v-164h44.0001v-164h-274v68.001l-.0009-.00051zm.0009 165.99951c-41.3331 0-71.0011-2.83241-89.0018-8.49955-17.9984-5.66714-26.9987-15.499-26.9987-29.5003 0-21.3339 18.3338-31.9997 54.999-31.9997 40.6669 0 61.0015 21.3339 61.0015 63.9993v6.00025z"/>
    <path id="svg_8" d="M401.999 450.001c18.6669 0 33.0013 4.99864 43.0009 14.9982 9.9996 10.0019 15.0006 26.3349 15.0006 49.0011v35.999c0 22.6686-4.83326 39.0015-14.4998 49.0011-9.66652 9.9996-24.1663 15.0006-43.5017 15.0006h-33.9982v-164h33.9982zM463.9998 0h-436v164h60v450.001h-60v164h448.999c40.6669 0 77.4998-4.16708 110.501-12.5013 32.9989-8.33184 60.8338-21.8324 83.5001-40.4992 22.6662-18.6669 40.1661-43.0009 52.4997-72.9997 12.3335-30.0011 18.4992-66.3333 18.4992-109.001 0-43.3339-6.16561-79.8338-18.4992-109.5-12.3335-29.6657-29.8334-53.8343-52.4997-72.5012-22.6662-18.6645-50.5011-32.165-83.5001-40.4992-33.0013-8.33417-69.8342-12.4989-110.501-12.4989h-108.999v-144.001h95.999v-164l.001.0005z"/>
    <path id="svg_9" d="M18.0007 778.001h274V164h44.0001V0h-318v164h44.0001v450.001H18.0008v164h-.0001z"/>
    <style>
      @font-face{font-family:&quot;Alfa Slab One&quot;;src:url(&quot;#FontID0&quot;) format(svg)}.fil2{fill:#009348}
    </style>
    <clipPath id="id0">
      <path id="svg_10" d="M7201 7334.905273c-45-28-91-57-139-88-446-285-916-633-1430-777h-2l-1-1h-2c341-1634 267-3202-306-4691-6 17-12 33-19 49-7 18-15 37-23 55-10 21-19 41-29 61-12 23-24 46-37 68-16 28-33 56-51 83-26 39-53 77-82 114-93 117-202 225-325 324-43 36-88 70-134 103-34 24-68 48-103 71-30 20-60 39-90 58-27 17-54 34-82 51-25 15-51 30-76 44-24 14-49 28-73 41-23 13-47 26-70 38-22 12-45 24-68 36-21 11-43 23-65 34s-43 22-65 33c-21 10-42 20-63 31-20 10-41 20-62 30-20 10-40 20-61 29-20 10-40 19-60 29-20 9-40 19-60 28l-59 28-59 27-59 27-58 26-59 27-58 26-58 27-58 26-58 26-59 27-58 27-59 27c-20 9-40 18-59 27-20 10-40 19-60 28-20 10-40 19-60 29-21 9-41 19-61 28-20 10-41 20-61 30l-63 30c-21 11-42 21-63 32s-42 21-64 32-43 22-65 34c-22 11-45 23-67 35s-45 24-68 36c-23 13-47 25-70 38-24 14-49 28-73 41-25 15-50 29-75 44-27 15-53 31-79 47-28 17-56 34-84 52-30 19-60 38-90 58-33 22-65 44-98 66-38 27-75 54-112 81-48 35-95 71-140 108-82 66-160 135-236 207-61 65-114 128-160 189-26 35-50 69-71 103-16 26-31 51-45 77-12 21-22 42-32 63-9 19-17 38-24 56-6 16-12 33-17 49-5 15-9 30-13 45-4 14-7 27-9 41-3 13-5 25-7 38-1 12-2 24-3 35s-1 22-2 33c0 11 0 21 1 32 0 10 1 20 2 29 1 10 2 19 4 28 1 10 3 18 5 27s4 17 6 26c2 8 5 16 7 24 3 8 6 16 9 23 3 8 6 15 10 23 3 7 6 14 10 21s7 14 11 20c4 7 8 13 13 20 4 6 8 12 13 19 4 6 9 12 13 18 5 6 10 11 15 17s10 11 15 17c5 5 10 11 15 16 6 5 11 10 17 15 5 5 11 10 17 15 5 5 11 10 17 14 6 5 12 10 18 14 7 4 13 9 19 13s13 9 19 13c7 4 13 8 20 12s13 8 20 11c7 4 14 8 21 11 7 4 14 7 21 11 8 3 15 7 22 10s15 6 22 9c8 3 15 7 23 10 8 2 15 5 23 8s16 6 24 8c8 3 16 5 24 8 8 2 16 5 25 7 8 2 16 5 24 7 9 2 17 4 26 6s17 4 26 6 18 4 26 5c9 2 18 4 27 5 9 2 18 3 27 5 10 1 19 3 28 4 10 1 19 2 29 3 9 1 19 3 28 3 10 1 20 2 29 3 10 1 20 2 30 2 10 1 20 1 30 2 10 0 21 1 31 1s21 0 31 1h32c10 0 21 0 32-1 11 0 22 0 32-1 12 0 23 0 34-1s22-1 34-2c11-1 23-2 34-3 12-1 23-2 35-3s24-2 36-4c12-1 24-3 36-4 12-2 24-4 37-5 12-2 25-4 37-6 13-2 26-4 39-7 13-2 26-4 39-7s26-5 40-8c13-3 27-6 40-9 14-3 28-6 42-10 14-3 28-7 42-11 15-3 29-7 44-11s30-9 45-13c15-5 30-9 45-14 16-5 31-10 47-15 16-6 32-11 48-17 17-6 34-12 50-18 17-6 34-13 52-19 17-7 35-14 53-22 18-7 36-15 55-23s38-17 57-26c20-9 40-18 60-28 21-10 42-20 63-31 23-12 45-23 67-35 24-13 48-26 72-40 26-15 51-30 77-45 28-18 57-35 85-54 32-21 65-42 97-65 39-27 77-55 116-84 54-41 108-84 162-130 146-125 288-266 424-424 45-53 90-109 134-166 30-39 60-80 89-121 23-33 47-67 70-101 17-27 35-53 52-81-6 16-12 31-18 47-8 18-15 36-23 54-8 19-17 38-25 57-10 20-19 40-29 60-10 21-20 42-31 64s-23 44-35 66c-13 24-26 48-39 71-15 26-30 51-45 77-16 27-33 55-51 82-19 31-39 61-59 91-23 34-46 68-70 102-29 40-58 80-88 120-39 51-79 102-120 152-80 96-163 191-250 282-54 56-109 111-164 164-91 87-185 171-282 249-49 41-98 80-148 117-39 29-78 58-117 85-33 23-66 46-99 68-30 19-59 38-88 56-27 16-54 33-81 48-24 15-49 29-73 42-23 13-46 25-69 37-21 11-43 22-64 33-21 10-41 20-61 29s-39 18-58 26-37 16-55 24c-18 7-36 14-53 21l-51 18c-16 6-32 12-48 17s-32 10-47 15-30 9-46 14c-14 4-29 8-43 12-15 4-29 7-43 11-14 3-27 6-41 9-13 3-26 5-40 8-13 2-26 5-38 7-13 2-26 4-38 6s-25 3-37 4c-12 2-24 3-35 4-12 2-24 3-35 4-12 0-23 1-34 1-11 1-22 1-33 2h-64c-10 0-21 0-31-1-10 0-20-1-30-2-10 0-20-1-29-2-10-1-19-2-29-3-9-1-19-2-28-4-9-1-19-2-28-4-9-1-18-3-27-5-8-1-17-3-26-5s-17-4-26-6c-8-2-17-4-25-7-8-2-17-4-25-7-8-2-16-5-24-7-8-3-16-5-24-8s-16-6-23-9c-8-2-16-5-23-8-8-4-15-7-23-10-7-3-14-6-22-10-7-3-14-6-21-10-7-3-14-7-21-11-7-3-14-7-21-11-7-3-14-7-20-11-7-4-14-8-20-12-7-4-13-8-20-12-6-4-13-8-19-13-6-4-13-8-19-13-6-4-12-8-18-13-6-4-12-9-18-14-6-4-12-9-18-14-6-4-12-9-18-14-5-5-11-10-17-15-5-4-11-9-17-14-5-6-11-11-16-16-6-5-11-10-16-15l-16-16c-5-6-11-11-16-16-5-6-10-11-15-17s-10-11-15-17c-5-5-10-11-15-17s-9-11-14-17-10-12-14-18c-5-6-10-12-14-18-5-6-9-12-14-18-4-6-9-12-13-18-5-7-9-13-13-19-5-6-9-13-13-19s-9-13-13-19c-4-7-8-13-12-20-4-6-8-13-12-19-4-7-8-14-12-20-4-7-8-14-12-20-3-7-7-14-11-21s-7-14-11-21c-4-6-7-13-11-20s-7-14-11-21c-3-8-7-15-10-22-4-7-7-14-10-21l-2-3-8-19-10-23-9-22-9-22-10-23-9-23-9-22-9-23-9-23-8-23-9-23-8-24-9-23-8-24-8-23-8-24-8-24-8-24-7-24-8-24-7-25-8-24-7-25-7-25-7-25-6-25-7-25-7-25-6-25-6-26c-78-321-119-656-119-1001 0-2772 2598-4780 5258-4139l26 7c9 2 17 4 26 6 8 2 16 4 25 6 8 3 16 5 25 7l25 7c8 2 17 4 25 7l25 7c8 2 16 5 24 7l25 7c8 3 16 5 24 8 8 2 16 5 24 7 8 3 16 5 24 8 8 2 16 5 24 8 8 2 16 5 24 7 8 3 16 6 24 8l24 9 23 8c8 3 16 5 24 8s15 6 23 8c8 3 16 6 23 9 8 3 16 6 23 9 8 3 16 6 23 9 8 3 16 5 23 8 8 3 15 7 23 10s15 6 23 9l22 9c8 3 15 6 23 9l22 10c7 3 15 6 22 9l22 10c8 3 15 7 22 10 8 3 15 6 22 10 8 3 15 6 22 10l22 10c7 3 14 7 21 10s15 7 22 10 14 7 21 11c7 3 14 7 21 10 8 4 15 7 22 11 138 69 273 147 404 231 6 4 13 9 19 13l19 12c7 5 13 9 19 13l19 13c7 4 13 9 19 13l19 13c6 4 12 9 19 13 6 4 12 8 18 13 7 4 13 9 19 13 6 5 12 9 18 14l18 13c7 5 13 9 19 13l18 14c6 5 12 9 18 14l18 14c6 4 12 9 18 13 6 5 12 10 18 14 6 5 12 10 18 14 6 5 11 10 17 15l18 14c6 5 12 9 17 14l18 14c6 5 11 10 17 15s12 10 17 14l18 15c5 5 11 10 17 15 5 4 11 10 17 14 5 5 11 10 16 15l17 15c6 5 12 10 17 15l17 15 16 16c6 5 11 10 17 15 5 5 11 10 16 15 6 5 11 10 17 16 5 5 10 10 16 15 5 6 11 11 16 16l16 16c5 5 11 10 16 15 5 6 11 11 16 16 5 6 10 11 16 16 5 6 10 11 15 16l16 16c5 6 11 11 16 17 5 5 10 10 15 16 5 5 10 11 16 16l15 17c5 5 10 11 15 16 5 6 10 11 16 17 5 5 9 11 14 17 5 5 10 11 15 16l15 17c5 6 10 12 15 17l15 17c5 6 10 12 15 17l14 18c5 5 10 11 15 17 4 6 9 11 14 17s10 12 14 18c5 6 10 12 14 17l15 18c4 6 9 12 14 18l14 17c4 6 9 12 14 18l13 18c5 6 10 12 14 18 5 6 9 12 14 18 4 7 9 13 13 19 5 6 9 12 14 18l13 19c5 6 9 12 14 18l13 19c4 6 8 12 13 18l13 19c4 6 8 13 13 19 4 6 8 12 13 19 4 6 8 12 12 19 5 6 9 13 13 19s8 13 13 19c4 7 8 13 12 19 4 7 8 13 13 20 4 6 8 13 12 19l12 20c4 6 8 13 12 19 4 7 8 14 12 20 4 7 8 13 12 20s8 13 12 20 8 13 12 20 8 13 12 20c3 7 7 14 11 20 4 7 8 14 11 21l12 20c4 7 7 14 11 20 4 7 8 14 11 21 4 7 8 14 11 21 4 7 8 14 11 21 4 7 8 13 11 20 4 7 8 14 11 21 4 7 7 14 11 21s7 15 11 22l10 21c4 7 7 14 11 21l10 22c3 7 7 14 10 21l10 22c3 7 7 14 10 22 4 7 7 14 10 21 3 8 7 15 10 22l10 23c3 7 6 14 9 22 3 7 7 14 10 22 3 7 6 15 9 22 3 8 6 15 9 23 3 7 7 15 10 23 3 7 6 15 9 22 3 8 6 15 9 23s5 15 8 23l9 23c3 8 6 15 9 23l8 23 9 24 8 23c3 8 6 16 8 24 3 8 6 16 8 24 3 7 6 16 8 24l8 24c3 8 5 15 8 23 2 9 5 17 7 25 3 8 5 16 8 24 2 8 5 16 7 25 2 8 5 16 7 24 3 8 5 16 7 25 3 8 5 16 7 25l7 25c2 8 5 16 7 25 2 8 4 16 7 25 2 8 4 17 6 25 2 9 4 17 6 26 2 8 4 17 6 25 2 9 4 17 6 26 3 9 4 17 6 26s4 17 6 26 4 17 6 26c1 9 3 18 5 26 2 9 4 18 5 27 2 9 4 18 5 27 2 9 4 17 6 26 1 9 3 18 5 27 1 9 3 18 4 27 2 9 3 19 5 28 1 9 3 18 4 27 2 9 3 18 4 27 2 10 3 19 4 28 2 10 3 19 4 28 2 9 3 19 4 28l4 28c1 10 2 19 3 29 1 9 2 19 3 28 1 10 3 19 4 29 1 9 1 19 2 29 1 9 2 19 3 29s2 19 2 29c1 10 2 20 3 29 1 10 1 20 2 30s1 20 2 30c0 10 1 20 2 30 0 10 1 20 1 30 1 10 1 21 1 31 1 10 1 20 2 30 0 11 1 21 1 31v31c1 11 1 21 1 32v127c0 11-1 21-1 32s-1 22-1 33-1 22-1 33c-1 11-1 22-2 33 0 11-1 23-1 34-1 11-2 22-2 34-1 11-2 22-3 34-1 11-1 23-2 34l-2 17c-5 93-13 183-25 272v1c-117 916-609 1807-1274 2443zm-5718-5988zm-1247 3005v1c5-31 11-63 16-94-5 31-11 63-16 94v-1z"/>
    </clipPath>
  </defs>
  <path fill="none" id="canvas_background" d="M-1-1h9245v9667H-1z"/>
  <g>
    <g id="svg_25">
      <path id="svg_11" d="M7202 7335.905273c-45-28-91-57-139-88-446-285-916-633-1430-777h-2l-1-1h-2c341-1634 267-3202-306-4691-6 17-12 33-19 49-7 18-15 37-23 55-10 21-19 41-29 61-12 23-24 46-37 68-16 28-33 56-51 83-26 39-53 77-82 114-93 117-202 225-325 324-43 36-88 70-134 103-34 24-68 48-103 71-30 20-60 39-90 58-27 17-54 34-82 51-25 15-51 30-76 44-24 14-49 28-73 41-23 13-47 26-70 38-22 12-45 24-68 36-21 11-43 23-65 34s-43 22-65 33c-21 10-42 20-63 31-20 10-41 20-62 30-20 10-40 20-61 29-20 10-40 19-60 29-20 9-40 19-60 28l-59 28-59 27-59 27-58 26-59 27-58 26-58 27-58 26-58 26-59 27-58 27-59 27c-20 9-40 18-59 27-20 10-40 19-60 28-20 10-40 19-60 29-21 9-41 19-61 28-20 10-41 20-61 30l-63 30c-21 11-42 21-63 32s-42 21-64 32-43 22-65 34c-22 11-45 23-67 35s-45 24-68 36c-23 13-47 25-70 38-24 14-49 28-73 41-25 15-50 29-75 44-27 15-53 31-79 47-28 17-56 34-84 52-30 19-60 38-90 58-33 22-65 44-98 66-38 27-75 54-112 81-48 35-95 71-140 108-82 66-160 135-236 207-61 65-114 128-160 189-26 35-50 69-71 103-16 26-31 51-45 77-12 21-22 42-32 63-9 19-17 38-24 56-6 16-12 33-17 49-5 15-9 30-13 45-4 14-7 27-9 41-3 13-5 25-7 38-1 12-2 24-3 35s-1 22-2 33c0 11 0 21 1 32 0 10 1 20 2 29 1 10 2 19 4 28 1 10 3 18 5 27s4 17 6 26c2 8 5 16 7 24 3 8 6 16 9 23 3 8 6 15 10 23 3 7 6 14 10 21s7 14 11 20c4 7 8 13 13 20 4 6 8 12 13 19 4 6 9 12 13 18 5 6 10 11 15 17s10 11 15 17c5 5 10 11 15 16 6 5 11 10 17 15 5 5 11 10 17 15 5 5 11 10 17 14 6 5 12 10 18 14 7 4 13 9 19 13s13 9 19 13c7 4 13 8 20 12s13 8 20 11c7 4 14 8 21 11 7 4 14 7 21 11 8 3 15 7 22 10s15 6 22 9c8 3 15 7 23 10 8 2 15 5 23 8s16 6 24 8c8 3 16 5 24 8 8 2 16 5 25 7 8 2 16 5 24 7 9 2 17 4 26 6s17 4 26 6 18 4 26 5c9 2 18 4 27 5 9 2 18 3 27 5 10 1 19 3 28 4 10 1 19 2 29 3 9 1 19 3 28 3 10 1 20 2 29 3 10 1 20 2 30 2 10 1 20 1 30 2 10 0 21 1 31 1s21 0 31 1h32c10 0 21 0 32-1 11 0 22 0 32-1 12 0 23 0 34-1s22-1 34-2c11-1 23-2 34-3 12-1 23-2 35-3s24-2 36-4c12-1 24-3 36-4 12-2 24-4 37-5 12-2 25-4 37-6 13-2 26-4 39-7 13-2 26-4 39-7s26-5 40-8c13-3 27-6 40-9 14-3 28-6 42-10 14-3 28-7 42-11 15-3 29-7 44-11s30-9 45-13c15-5 30-9 45-14 16-5 31-10 47-15 16-6 32-11 48-17 17-6 34-12 50-18 17-6 34-13 52-19 17-7 35-14 53-22 18-7 36-15 55-23s38-17 57-26c20-9 40-18 60-28 21-10 42-20 63-31 23-12 45-23 67-35 24-13 48-26 72-40 26-15 51-30 77-45 28-18 57-35 85-54 32-21 65-42 97-65 39-27 77-55 116-84 54-41 108-84 162-130 146-125 288-266 424-424 45-53 90-109 134-166 30-39 60-80 89-121 23-33 47-67 70-101 17-27 35-53 52-81-6 16-12 31-18 47-8 18-15 36-23 54-8 19-17 38-25 57-10 20-19 40-29 60-10 21-20 42-31 64s-23 44-35 66c-13 24-26 48-39 71-15 26-30 51-45 77-16 27-33 55-51 82-19 31-39 61-59 91-23 34-46 68-70 102-29 40-58 80-88 120-39 51-79 102-120 152-80 96-163 191-250 282-54 56-109 111-164 164-91 87-185 171-282 249-49 41-98 80-148 117-39 29-78 58-117 85-33 23-66 46-99 68-30 19-59 38-88 56-27 16-54 33-81 48-24 15-49 29-73 42-23 13-46 25-69 37-21 11-43 22-64 33-21 10-41 20-61 29s-39 18-58 26-37 16-55 24c-18 7-36 14-53 21l-51 18c-16 6-32 12-48 17s-32 10-47 15-30 9-46 14c-14 4-29 8-43 12-15 4-29 7-43 11-14 3-27 6-41 9-13 3-26 5-40 8-13 2-26 5-38 7-13 2-26 4-38 6s-25 3-37 4c-12 2-24 3-35 4-12 2-24 3-35 4-12 0-23 1-34 1-11 1-22 1-33 2h-64c-10 0-21 0-31-1-10 0-20-1-30-2-10 0-20-1-29-2-10-1-19-2-29-3-9-1-19-2-28-4-9-1-19-2-28-4-9-1-18-3-27-5-8-1-17-3-26-5s-17-4-26-6c-8-2-17-4-25-7-8-2-17-4-25-7-8-2-16-5-24-7-8-3-16-5-24-8s-16-6-23-9c-8-2-16-5-23-8-8-4-15-7-23-10-7-3-14-6-22-10-7-3-14-6-21-10-7-3-14-7-21-11-7-3-14-7-21-11-7-3-14-7-20-11-7-4-14-8-20-12-7-4-13-8-20-12-6-4-13-8-19-13-6-4-13-8-19-13-6-4-12-8-18-13-6-4-12-9-18-14-6-4-12-9-18-14-6-4-12-9-18-14-5-5-11-10-17-15-5-4-11-9-17-14-5-6-11-11-16-16-6-5-11-10-16-15l-16-16c-5-6-11-11-16-16-5-6-10-11-15-17s-10-11-15-17c-5-5-10-11-15-17s-9-11-14-17-10-12-14-18c-5-6-10-12-14-18-5-6-9-12-14-18-4-6-9-12-13-18-5-7-9-13-13-19-5-6-9-13-13-19s-9-13-13-19c-4-7-8-13-12-20-4-6-8-13-12-19-4-7-8-14-12-20-4-7-8-14-12-20-3-7-7-14-11-21s-7-14-11-21c-4-6-7-13-11-20s-7-14-11-21c-3-8-7-15-10-22-4-7-7-14-10-21l-2-3-8-19-10-23-9-22-9-22-10-23-9-23-9-22-9-23-9-23-8-23-9-23-8-24-9-23-8-24-8-23-8-24-8-24-8-24-7-24-8-24-7-25-8-24-7-25-7-25-7-25-6-25-7-25-7-25-6-25-6-26c-78-321-119-656-119-1001 0-2772 2598-4780 5258-4139l26 7c9 2 17 4 26 6 8 2 16 4 25 6 8 3 16 5 25 7l25 7c8 2 17 4 25 7l25 7c8 2 16 5 24 7l25 7c8 3 16 5 24 8 8 2 16 5 24 7 8 3 16 5 24 8 8 2 16 5 24 8 8 2 16 5 24 7 8 3 16 6 24 8l24 9 23 8c8 3 16 5 24 8s15 6 23 8c8 3 16 6 23 9 8 3 16 6 23 9 8 3 16 6 23 9 8 3 16 5 23 8 8 3 15 7 23 10s15 6 23 9l22 9c8 3 15 6 23 9l22 10c7 3 15 6 22 9l22 10c8 3 15 7 22 10 8 3 15 6 22 10 8 3 15 6 22 10l22 10c7 3 14 7 21 10s15 7 22 10 14 7 21 11c7 3 14 7 21 10 8 4 15 7 22 11 138 69 273 147 404 231 6 4 13 9 19 13l19 12c7 5 13 9 19 13l19 13c7 4 13 9 19 13l19 13c6 4 12 9 19 13 6 4 12 8 18 13 7 4 13 9 19 13 6 5 12 9 18 14l18 13c7 5 13 9 19 13l18 14c6 5 12 9 18 14l18 14c6 4 12 9 18 13 6 5 12 10 18 14 6 5 12 10 18 14 6 5 11 10 17 15l18 14c6 5 12 9 17 14l18 14c6 5 11 10 17 15s12 10 17 14l18 15c5 5 11 10 17 15 5 4 11 10 17 14 5 5 11 10 16 15l17 15c6 5 12 10 17 15l17 15 16 16c6 5 11 10 17 15 5 5 11 10 16 15 6 5 11 10 17 16 5 5 10 10 16 15 5 6 11 11 16 16l16 16c5 5 11 10 16 15 5 6 11 11 16 16 5 6 10 11 16 16 5 6 10 11 15 16l16 16c5 6 11 11 16 17 5 5 10 10 15 16 5 5 10 11 16 16l15 17c5 5 10 11 15 16 5 6 10 11 16 17 5 5 9 11 14 17 5 5 10 11 15 16l15 17c5 6 10 12 15 17l15 17c5 6 10 12 15 17l14 18c5 5 10 11 15 17 4 6 9 11 14 17s10 12 14 18c5 6 10 12 14 17l15 18c4 6 9 12 14 18l14 17c4 6 9 12 14 18l13 18c5 6 10 12 14 18 5 6 9 12 14 18 4 7 9 13 13 19 5 6 9 12 14 18l13 19c5 6 9 12 14 18l13 19c4 6 8 12 13 18l13 19c4 6 8 13 13 19 4 6 8 12 13 19 4 6 8 12 12 19 5 6 9 13 13 19s8 13 13 19c4 7 8 13 12 19 4 7 8 13 13 20 4 6 8 13 12 19l12 20c4 6 8 13 12 19 4 7 8 14 12 20 4 7 8 13 12 20s8 13 12 20 8 13 12 20 8 13 12 20c3 7 7 14 11 20 4 7 8 14 11 21l12 20c4 7 7 14 11 20 4 7 8 14 11 21 4 7 8 14 11 21 4 7 8 14 11 21 4 7 8 13 11 20 4 7 8 14 11 21 4 7 7 14 11 21s7 15 11 22l10 21c4 7 7 14 11 21l10 22c3 7 7 14 10 21l10 22c3 7 7 14 10 22 4 7 7 14 10 21 3 8 7 15 10 22l10 23c3 7 6 14 9 22 3 7 7 14 10 22 3 7 6 15 9 22 3 8 6 15 9 23 3 7 7 15 10 23 3 7 6 15 9 22 3 8 6 15 9 23s5 15 8 23l9 23c3 8 6 15 9 23l8 23 9 24 8 23c3 8 6 16 8 24 3 8 6 16 8 24 3 7 6 16 8 24l8 24c3 8 5 15 8 23 2 9 5 17 7 25 3 8 5 16 8 24 2 8 5 16 7 25 2 8 5 16 7 24 3 8 5 16 7 25 3 8 5 16 7 25l7 25c2 8 5 16 7 25 2 8 4 16 7 25 2 8 4 17 6 25 2 9 4 17 6 26 2 8 4 17 6 25 2 9 4 17 6 26 3 9 4 17 6 26s4 17 6 26 4 17 6 26c1 9 3 18 5 26 2 9 4 18 5 27 2 9 4 18 5 27 2 9 4 17 6 26 1 9 3 18 5 27 1 9 3 18 4 27 2 9 3 19 5 28 1 9 3 18 4 27 2 9 3 18 4 27 2 10 3 19 4 28 2 10 3 19 4 28 2 9 3 19 4 28l4 28c1 10 2 19 3 29 1 9 2 19 3 28 1 10 3 19 4 29 1 9 1 19 2 29 1 9 2 19 3 29s2 19 2 29c1 10 2 20 3 29 1 10 1 20 2 30s1 20 2 30c0 10 1 20 2 30 0 10 1 20 1 30 1 10 1 21 1 31 1 10 1 20 2 30 0 11 1 21 1 31v31c1 11 1 21 1 32v127c0 11-1 21-1 32s-1 22-1 33-1 22-1 33c-1 11-1 22-2 33 0 11-1 23-1 34-1 11-2 22-2 34-1 11-2 22-3 34-1 11-1 23-2 34l-2 17c-5 93-13 183-25 272v1c-117 916-609 1807-1274 2443zm-6965-2983v1c5-31 11-63 16-94-5 31-11 63-16 94v-1z" fill="none"/>
      <g id="svg_12">
        <path d="M7202 7335.905273c-45-28-91-57-139-88-446-285-916-633-1430-777h-2l-1-1h-2c341-1634 267-3202-306-4691-6 17-12 33-19 49-7 18-15 37-23 55-10 21-19 41-29 61-12 23-24 46-37 68-16 28-33 56-51 83-26 39-53 77-82 114-93 117-202 225-325 324-43 36-88 70-134 103-34 24-68 48-103 71-30 20-60 39-90 58-27 17-54 34-82 51-25 15-51 30-76 44-24 14-49 28-73 41-23 13-47 26-70 38-22 12-45 24-68 36-21 11-43 23-65 34s-43 22-65 33c-21 10-42 20-63 31-20 10-41 20-62 30-20 10-40 20-61 29-20 10-40 19-60 29-20 9-40 19-60 28l-59 28-59 27-59 27-58 26-59 27-58 26-58 27-58 26-58 26-59 27-58 27-59 27c-20 9-40 18-59 27-20 10-40 19-60 28-20 10-40 19-60 29-21 9-41 19-61 28-20 10-41 20-61 30l-63 30c-21 11-42 21-63 32s-42 21-64 32-43 22-65 34c-22 11-45 23-67 35s-45 24-68 36c-23 13-47 25-70 38-24 14-49 28-73 41-25 15-50 29-75 44-27 15-53 31-79 47-28 17-56 34-84 52-30 19-60 38-90 58-33 22-65 44-98 66-38 27-75 54-112 81-48 35-95 71-140 108-82 66-160 135-236 207-61 65-114 128-160 189-26 35-50 69-71 103-16 26-31 51-45 77-12 21-22 42-32 63-9 19-17 38-24 56-6 16-12 33-17 49-5 15-9 30-13 45-4 14-7 27-9 41-3 13-5 25-7 38-1 12-2 24-3 35s-1 22-2 33c0 11 0 21 1 32 0 10 1 20 2 29 1 10 2 19 4 28 1 10 3 18 5 27s4 17 6 26c2 8 5 16 7 24 3 8 6 16 9 23 3 8 6 15 10 23 3 7 6 14 10 21s7 14 11 20c4 7 8 13 13 20 4 6 8 12 13 19 4 6 9 12 13 18 5 6 10 11 15 17s10 11 15 17c5 5 10 11 15 16 6 5 11 10 17 15 5 5 11 10 17 15 5 5 11 10 17 14 6 5 12 10 18 14 7 4 13 9 19 13s13 9 19 13c7 4 13 8 20 12s13 8 20 11c7 4 14 8 21 11 7 4 14 7 21 11 8 3 15 7 22 10s15 6 22 9c8 3 15 7 23 10 8 2 15 5 23 8s16 6 24 8c8 3 16 5 24 8 8 2 16 5 25 7 8 2 16 5 24 7 9 2 17 4 26 6s17 4 26 6 18 4 26 5c9 2 18 4 27 5 9 2 18 3 27 5 10 1 19 3 28 4 10 1 19 2 29 3 9 1 19 3 28 3 10 1 20 2 29 3 10 1 20 2 30 2 10 1 20 1 30 2 10 0 21 1 31 1s21 0 31 1h32c10 0 21 0 32-1 11 0 22 0 32-1 12 0 23 0 34-1s22-1 34-2c11-1 23-2 34-3 12-1 23-2 35-3s24-2 36-4c12-1 24-3 36-4 12-2 24-4 37-5 12-2 25-4 37-6 13-2 26-4 39-7 13-2 26-4 39-7s26-5 40-8c13-3 27-6 40-9 14-3 28-6 42-10 14-3 28-7 42-11 15-3 29-7 44-11s30-9 45-13c15-5 30-9 45-14 16-5 31-10 47-15 16-6 32-11 48-17 17-6 34-12 50-18 17-6 34-13 52-19 17-7 35-14 53-22 18-7 36-15 55-23s38-17 57-26c20-9 40-18 60-28 21-10 42-20 63-31 23-12 45-23 67-35 24-13 48-26 72-40 26-15 51-30 77-45 28-18 57-35 85-54 32-21 65-42 97-65 39-27 77-55 116-84 54-41 108-84 162-130 146-125 288-266 424-424 45-53 90-109 134-166 30-39 60-80 89-121 23-33 47-67 70-101 17-27 35-53 52-81-6 16-12 31-18 47-8 18-15 36-23 54-8 19-17 38-25 57-10 20-19 40-29 60-10 21-20 42-31 64s-23 44-35 66c-13 24-26 48-39 71-15 26-30 51-45 77-16 27-33 55-51 82-19 31-39 61-59 91-23 34-46 68-70 102-29 40-58 80-88 120-39 51-79 102-120 152-80 96-163 191-250 282-54 56-109 111-164 164-91 87-185 171-282 249-49 41-98 80-148 117-39 29-78 58-117 85-33 23-66 46-99 68-30 19-59 38-88 56-27 16-54 33-81 48-24 15-49 29-73 42-23 13-46 25-69 37-21 11-43 22-64 33-21 10-41 20-61 29s-39 18-58 26-37 16-55 24c-18 7-36 14-53 21l-51 18c-16 6-32 12-48 17s-32 10-47 15-30 9-46 14c-14 4-29 8-43 12-15 4-29 7-43 11-14 3-27 6-41 9-13 3-26 5-40 8-13 2-26 5-38 7-13 2-26 4-38 6s-25 3-37 4c-12 2-24 3-35 4-12 2-24 3-35 4-12 0-23 1-34 1-11 1-22 1-33 2h-64c-10 0-21 0-31-1-10 0-20-1-30-2-10 0-20-1-29-2-10-1-19-2-29-3-9-1-19-2-28-4-9-1-19-2-28-4-9-1-18-3-27-5-8-1-17-3-26-5s-17-4-26-6c-8-2-17-4-25-7-8-2-17-4-25-7-8-2-16-5-24-7-8-3-16-5-24-8s-16-6-23-9c-8-2-16-5-23-8-8-4-15-7-23-10-7-3-14-6-22-10-7-3-14-6-21-10-7-3-14-7-21-11-7-3-14-7-21-11-7-3-14-7-20-11-7-4-14-8-20-12-7-4-13-8-20-12-6-4-13-8-19-13-6-4-13-8-19-13-6-4-12-8-18-13-6-4-12-9-18-14-6-4-12-9-18-14-6-4-12-9-18-14-5-5-11-10-17-15-5-4-11-9-17-14-5-6-11-11-16-16-6-5-11-10-16-15l-16-16c-5-6-11-11-16-16-5-6-10-11-15-17s-10-11-15-17c-5-5-10-11-15-17s-9-11-14-17-10-12-14-18c-5-6-10-12-14-18-5-6-9-12-14-18-4-6-9-12-13-18-5-7-9-13-13-19-5-6-9-13-13-19s-9-13-13-19c-4-7-8-13-12-20-4-6-8-13-12-19-4-7-8-14-12-20-4-7-8-14-12-20-3-7-7-14-11-21s-7-14-11-21c-4-6-7-13-11-20s-7-14-11-21c-3-8-7-15-10-22-4-7-7-14-10-21l-2-3-8-19-10-23-9-22-9-22-10-23-9-23-9-22-9-23-9-23-8-23-9-23-8-24-9-23-8-24-8-23-8-24-8-24-8-24-7-24-8-24-7-25-8-24-7-25-7-25-7-25-6-25-7-25-7-25-6-25-6-26c-78-321-119-656-119-1001 0-2772 2598-4780 5258-4139l26 7c9 2 17 4 26 6 8 2 16 4 25 6 8 3 16 5 25 7l25 7c8 2 17 4 25 7l25 7c8 2 16 5 24 7l25 7c8 3 16 5 24 8 8 2 16 5 24 7 8 3 16 5 24 8 8 2 16 5 24 8 8 2 16 5 24 7 8 3 16 6 24 8l24 9 23 8c8 3 16 5 24 8s15 6 23 8c8 3 16 6 23 9 8 3 16 6 23 9 8 3 16 6 23 9 8 3 16 5 23 8 8 3 15 7 23 10s15 6 23 9l22 9c8 3 15 6 23 9l22 10c7 3 15 6 22 9l22 10c8 3 15 7 22 10 8 3 15 6 22 10 8 3 15 6 22 10l22 10c7 3 14 7 21 10s15 7 22 10 14 7 21 11c7 3 14 7 21 10 8 4 15 7 22 11 138 69 273 147 404 231 6 4 13 9 19 13l19 12c7 5 13 9 19 13l19 13c7 4 13 9 19 13l19 13c6 4 12 9 19 13 6 4 12 8 18 13 7 4 13 9 19 13 6 5 12 9 18 14l18 13c7 5 13 9 19 13l18 14c6 5 12 9 18 14l18 14c6 4 12 9 18 13 6 5 12 10 18 14 6 5 12 10 18 14 6 5 11 10 17 15l18 14c6 5 12 9 17 14l18 14c6 5 11 10 17 15s12 10 17 14l18 15c5 5 11 10 17 15 5 4 11 10 17 14 5 5 11 10 16 15l17 15c6 5 12 10 17 15l17 15 16 16c6 5 11 10 17 15 5 5 11 10 16 15 6 5 11 10 17 16 5 5 10 10 16 15 5 6 11 11 16 16l16 16c5 5 11 10 16 15 5 6 11 11 16 16 5 6 10 11 16 16 5 6 10 11 15 16l16 16c5 6 11 11 16 17 5 5 10 10 15 16 5 5 10 11 16 16l15 17c5 5 10 11 15 16 5 6 10 11 16 17 5 5 9 11 14 17 5 5 10 11 15 16l15 17c5 6 10 12 15 17l15 17c5 6 10 12 15 17l14 18c5 5 10 11 15 17 4 6 9 11 14 17s10 12 14 18c5 6 10 12 14 17l15 18c4 6 9 12 14 18l14 17c4 6 9 12 14 18l13 18c5 6 10 12 14 18 5 6 9 12 14 18 4 7 9 13 13 19 5 6 9 12 14 18l13 19c5 6 9 12 14 18l13 19c4 6 8 12 13 18l13 19c4 6 8 13 13 19 4 6 8 12 13 19 4 6 8 12 12 19 5 6 9 13 13 19s8 13 13 19c4 7 8 13 12 19 4 7 8 13 13 20 4 6 8 13 12 19l12 20c4 6 8 13 12 19 4 7 8 14 12 20 4 7 8 13 12 20s8 13 12 20 8 13 12 20 8 13 12 20c3 7 7 14 11 20 4 7 8 14 11 21l12 20c4 7 7 14 11 20 4 7 8 14 11 21 4 7 8 14 11 21 4 7 8 14 11 21 4 7 8 13 11 20 4 7 8 14 11 21 4 7 7 14 11 21s7 15 11 22l10 21c4 7 7 14 11 21l10 22c3 7 7 14 10 21l10 22c3 7 7 14 10 22 4 7 7 14 10 21 3 8 7 15 10 22l10 23c3 7 6 14 9 22 3 7 7 14 10 22 3 7 6 15 9 22 3 8 6 15 9 23 3 7 7 15 10 23 3 7 6 15 9 22 3 8 6 15 9 23s5 15 8 23l9 23c3 8 6 15 9 23l8 23 9 24 8 23c3 8 6 16 8 24 3 8 6 16 8 24 3 7 6 16 8 24l8 24c3 8 5 15 8 23 2 9 5 17 7 25 3 8 5 16 8 24 2 8 5 16 7 25 2 8 5 16 7 24 3 8 5 16 7 25 3 8 5 16 7 25l7 25c2 8 5 16 7 25 2 8 4 16 7 25 2 8 4 17 6 25 2 9 4 17 6 26 2 8 4 17 6 25 2 9 4 17 6 26 3 9 4 17 6 26s4 17 6 26 4 17 6 26c1 9 3 18 5 26 2 9 4 18 5 27 2 9 4 18 5 27 2 9 4 17 6 26 1 9 3 18 5 27 1 9 3 18 4 27 2 9 3 19 5 28 1 9 3 18 4 27 2 9 3 18 4 27 2 10 3 19 4 28 2 10 3 19 4 28 2 9 3 19 4 28l4 28c1 10 2 19 3 29 1 9 2 19 3 28 1 10 3 19 4 29 1 9 1 19 2 29 1 9 2 19 3 29s2 19 2 29c1 10 2 20 3 29 1 10 1 20 2 30s1 20 2 30c0 10 1 20 2 30 0 10 1 20 1 30 1 10 1 21 1 31 1 10 1 20 2 30 0 11 1 21 1 31v31c1 11 1 21 1 32v127c0 11-1 21-1 32s-1 22-1 33-1 22-1 33c-1 11-1 22-2 33 0 11-1 23-1 34-1 11-2 22-2 34-1 11-2 22-3 34-1 11-1 23-2 34l-2 17c-5 93-13 183-25 272v1c-117 916-609 1807-1274 2443zm-5718-5988zm-1247 3005v1c5-31 11-63 16-94-5 31-11 63-16 94v-1z" id="1" fill="#02a350"/>
      </g>
      <g id="svg_13" clip-path="url(#id0)">
        <g id="_843350000">
          <path d="M5325 1767.905273l3515 3460c831 2440-1599 3958-4699 4338-3100 381-807-421-386-982 421-562 1544-6772 1570-6816z" class="fil2" id="2"/>
          <path id="svg_14" d="M5302 1787.905273c687 1311 1054 2958 463 4799-5 16-344-78-296-101 0 0-167-4722-167-4698z" fill="#007a3b"/>
        </g>
      </g>
      <path id="svg_15" d="M3013 7344.905273c-272 302-516 671-693 1028-16 32-23 48-38 77l-28 77c77-89 164-295 495-662 414-459 905-608 1463-498 190 38 573 226 760 317l565 272c46 22 158 70 199 101l-801-265c-192-52-272-85-492-129-225-44-423-83-637-13-235 77-442 170-649 399-44 50-106 134-120 179 39 20 233 27 393 84 64 23 123 40 198 67 796 294 1678 894 2580 1087 852 182 1620-173 2295-676 265-199 475-416 740-709l-12-11c-99 110-260 114-371 110-137-4-179-21-294-44-393-79-922-361-1281-575-139-83-259-157-401-248-686-438-1269-906-2169-860-604 32-1183 316-1702 892z" class="fil2"/>
    </g>
  </g>
</svg>
