<svg xmlns="http://www.w3.org/2000/svg" viewBox="0 0 150 154.41" shape-rendering="geometricPrecision" text-rendering="geometricPrecision" image-rendering="optimizeQuality" fill-rule="evenodd" clip-rule="evenodd">
  <defs>
    <style>
      .fil2{fill:#009348}
    </style>
    <clipPath id="id0">
      <path d="M116.88 119.04c-.73-.45-1.48-.93-2.26-1.43-7.24-4.62-14.87-10.26-23.22-12.6l-.02-.01h-.02l-.01-.01h-.02c5.53-26.53 4.32-51.98-4.98-76.15-.09.27-.2.53-.3.79-.12.3-.25.6-.38.9-.15.33-.31.66-.47.98-.19.38-.39.75-.59 1.11-.27.46-.54.91-.83 1.34-.42.64-.87 1.26-1.34 1.86-1.5 1.91-3.28 3.65-5.27 5.27-.7.57-1.43 1.12-2.18 1.66-.54.39-1.1.78-1.67 1.16-.48.32-.97.63-1.46.94-.44.28-.88.55-1.33.82-.41.24-.83.48-1.24.72-.39.23-.79.45-1.18.67-.38.2-.76.41-1.14.61-.36.2-.72.39-1.09.59-.36.18-.71.36-1.07.55-.35.17-.69.35-1.05.53-.33.17-.68.33-1.02.5-.33.17-.67.33-1 .49l-.99.48c-.33.15-.66.31-.99.46-.32.15-.64.31-.97.46l-.96.45-.96.44-.95.43-.95.44-.95.43-.94.42-.94.43-.95.43-.94.43-.95.43-.95.44-.96.44c-.32.15-.64.29-.96.44-.32.15-.64.3-.97.45-.32.16-.65.31-.97.47-.33.15-.66.31-.99.47-.33.15-.66.31-.99.47-.34.17-.68.33-1.01.5-.35.17-.69.34-1.03.51-.35.17-.69.35-1.04.52-.35.18-.71.36-1.06.55-.36.18-.72.37-1.08.56-.37.2-.74.4-1.11.59l-1.14.63c-.39.22-.79.44-1.18.66-.41.24-.82.47-1.22.71-.43.25-.86.51-1.28.76-.46.28-.91.56-1.36.85-.49.31-.98.62-1.46.94-.54.35-1.07.71-1.59 1.08-.62.43-1.23.86-1.83 1.31-.77.57-1.53 1.16-2.28 1.76-1.31 1.06-2.59 2.18-3.81 3.35-1 1.05-1.86 2.07-2.6 3.06-.42.57-.81 1.13-1.16 1.67-.26.43-.51.84-.73 1.25-.19.35-.36.7-.52 1.04-.14.3-.27.6-.38.9-.11.27-.2.53-.28.8-.08.24-.15.48-.21.72-.06.23-.11.45-.15.67-.04.21-.08.41-.11.62l-.06.57c-.01.18-.02.36-.02.54 0 .17 0 .34.01.51l.03.48c.02.15.04.31.06.46.03.14.05.29.08.43s.07.28.11.41c.03.14.07.27.12.4.04.13.09.25.14.38.04.12.1.24.15.36.06.11.11.23.17.34.06.11.12.23.19.33.06.11.13.22.19.32.07.11.14.21.21.31.08.1.15.19.23.29.07.1.15.19.23.28.08.1.16.19.25.27.08.09.16.18.25.27.09.08.17.16.27.25l.27.24c.09.08.19.15.29.23.09.07.19.15.29.22l.3.21c.11.07.21.14.32.21.1.06.21.13.32.19.1.06.21.13.32.19.11.06.23.12.34.18.12.06.23.11.35.17.11.05.23.11.35.16.12.05.24.11.36.16s.24.1.37.14c.12.05.25.1.38.14.12.05.25.09.38.13.13.05.26.09.39.13.13.04.26.08.4.12.13.03.27.07.4.11.14.03.28.07.42.1l.42.09c.14.03.29.06.43.09s.29.06.43.08c.15.03.3.05.45.07.15.03.3.05.45.07.15.02.3.04.46.06.15.01.31.03.46.05.16.01.32.03.48.04l.48.03c.16.01.32.02.49.03.16.01.33.01.5.02.16 0 .33.01.5.01h.51c.18 0 .35 0 .53-.01.17 0 .35 0 .53-.01.18-.01.36-.02.54-.02.18-.01.36-.03.55-.04.18-.01.37-.03.56-.04.18-.02.37-.04.56-.05.2-.02.39-.04.58-.07.2-.02.39-.04.59-.07.2-.02.4-.05.6-.08.2-.03.41-.06.61-.1.21-.03.41-.06.62-.1.21-.04.42-.08.64-.12.21-.04.43-.08.64-.13l.66-.15c.23-.05.45-.1.68-.15l.69-.18c.23-.06.47-.12.7-.19.24-.07.49-.13.73-.21.24-.07.49-.14.74-.22.25-.08.51-.16.76-.25.26-.09.52-.18.79-.27.26-.09.53-.19.8-.29.28-.1.56-.21.84-.32.28-.11.57-.22.86-.34.3-.13.59-.25.89-.38.31-.14.63-.28.94-.42.32-.15.65-.3.97-.46.34-.16.69-.33 1.03-.51.36-.18.72-.37 1.08-.57.39-.21.78-.42 1.16-.64.42-.24.84-.48 1.26-.74.46-.28.92-.57 1.38-.86.52-.34 1.04-.69 1.57-1.06.63-.44 1.26-.89 1.88-1.37.88-.66 1.76-1.37 2.63-2.11 2.37-2.02 4.68-4.31 6.88-6.88.74-.87 1.47-1.77 2.18-2.7.49-.63.97-1.29 1.44-1.95.38-.54.76-1.09 1.13-1.65.29-.43.58-.87.86-1.31-.1.25-.2.5-.3.76-.12.29-.25.59-.37.88-.14.31-.27.62-.41.93-.15.32-.3.65-.46.97-.17.34-.34.69-.51 1.03-.19.36-.37.72-.57 1.08-.21.39-.42.77-.64 1.15-.23.42-.47.83-.72 1.24-.27.45-.54.9-.82 1.34-.31.5-.64.99-.96 1.48-.37.56-.76 1.11-1.15 1.66-.46.65-.93 1.3-1.42 1.94-.63.83-1.28 1.65-1.95 2.47-1.29 1.56-2.65 3.09-4.06 4.57-.87.91-1.76 1.8-2.67 2.67-1.48 1.41-3 2.77-4.56 4.05-.8.65-1.6 1.28-2.42 1.9-.62.47-1.26.93-1.89 1.37-.54.38-1.07.74-1.61 1.1-.48.31-.95.61-1.43.91-.43.27-.87.53-1.3.79-.4.23-.8.45-1.2.67-.37.21-.74.41-1.11.6-.35.19-.7.36-1.05.54-.33.16-.66.32-.99.47-.31.15-.63.29-.94.43-.3.13-.6.25-.9.38-.28.11-.57.23-.85.34-.28.1-.55.2-.82.3-.27.1-.53.19-.79.27-.26.09-.51.17-.76.25-.25.08-.49.15-.74.22-.24.07-.47.13-.71.19l-.69.18c-.22.05-.44.1-.67.15-.21.04-.43.09-.64.13-.21.04-.42.08-.63.11-.21.04-.41.07-.61.1s-.4.05-.6.08c-.19.02-.38.04-.58.06-.19.02-.37.04-.56.05-.19.01-.37.02-.55.03-.18.01-.36.02-.54.02-.17.01-.35.01-.52.01h-.51c-.17-.01-.34-.01-.5-.02-.17-.01-.33-.02-.49-.03-.16-.01-.32-.02-.48-.04-.16-.01-.31-.03-.47-.04l-.45-.06c-.15-.03-.3-.05-.45-.07-.15-.03-.29-.05-.44-.08-.14-.03-.28-.06-.43-.09-.13-.03-.27-.06-.41-.1-.14-.03-.28-.06-.41-.1-.14-.04-.27-.08-.41-.12-.13-.03-.26-.07-.39-.12-.13-.04-.26-.08-.39-.13-.12-.04-.25-.09-.38-.13-.12-.05-.24-.1-.37-.15l-.36-.15c-.12-.05-.24-.11-.36-.16-.11-.05-.23-.11-.35-.17-.11-.05-.23-.11-.34-.17-.11-.06-.23-.12-.34-.18l-.33-.18c-.11-.07-.21-.13-.32-.2-.11-.06-.21-.13-.32-.19-.1-.07-.21-.14-.31-.21-.1-.07-.2-.14-.31-.21l-.3-.21c-.09-.08-.19-.15-.29-.23-.1-.07-.19-.15-.29-.22-.09-.08-.19-.16-.28-.23-.1-.08-.19-.16-.28-.24-.09-.08-.18-.16-.27-.25l-.27-.24c-.09-.09-.18-.17-.26-.26-.09-.08-.18-.17-.26-.26-.09-.08-.17-.17-.25-.26-.09-.09-.17-.18-.25-.27-.08-.09-.17-.18-.25-.27-.08-.09-.16-.18-.23-.28-.08-.09-.16-.18-.24-.28-.08-.09-.15-.19-.23-.28-.07-.1-.15-.2-.22-.3-.08-.09-.15-.19-.22-.29-.08-.1-.15-.2-.22-.3l-.21-.3c-.07-.1-.14-.21-.21-.31-.07-.1-.14-.21-.21-.31-.06-.11-.13-.21-.2-.32-.06-.1-.13-.21-.19-.32-.07-.11-.13-.21-.2-.32l-.18-.33c-.07-.11-.13-.22-.19-.33-.06-.11-.12-.22-.18-.34l-.18-.33c-.05-.12-.11-.23-.17-.35-.06-.11-.11-.23-.17-.34-.06-.12-.11-.23-.17-.35l-.02-.04-.13-.32-.16-.36-.15-.36-.15-.37-.15-.36-.15-.37-.15-.37-.14-.37-.15-.37-.14-.38-.14-.38-.13-.37-.14-.39-.13-.38-.13-.38-.13-.39-.13-.39-.13-.38-.12-.4-.13-.39-.12-.4-.11-.39-.12-.4-.11-.4-.12-.41-.11-.4-.1-.41-.11-.41-.1-.42-.11-.41C.67 80.17 0 74.73 0 69.13 0 24.14 42.16-8.46 85.36 1.95l.41.1c.14.03.28.07.42.1.13.04.27.07.41.11.13.03.27.07.4.11l.41.11c.13.03.27.07.4.11l.41.11.39.12.4.12c.13.04.27.08.4.12l.39.12.39.12c.13.05.26.09.39.13.13.04.26.08.39.13l.39.12c.13.05.25.09.38.14l.38.13c.13.05.26.09.38.14.13.04.26.09.39.13.12.05.24.1.37.14.12.05.25.1.37.15.13.04.25.09.38.14.12.05.25.09.37.14.12.05.25.1.37.15l.36.15.37.15c.12.05.25.1.37.15l.36.15c.12.05.24.11.36.16l.36.16.36.15c.11.06.23.11.35.16.12.06.24.11.35.17l.36.16c.11.06.23.11.35.16.11.06.23.11.35.17.11.05.23.11.34.17.12.06.23.11.35.17.11.06.23.11.34.17 2.26 1.13 4.45 2.39 6.56 3.76.11.07.21.14.31.21l.32.2c.1.07.2.14.31.2l.3.21c.11.07.21.14.31.21l.3.21c.11.08.21.15.31.22l.3.21.3.21c.1.08.2.15.3.22l.3.22c.1.07.2.14.3.22l.29.22c.1.07.2.15.29.22l.3.23c.09.07.19.14.29.22.1.08.19.15.29.22.1.08.19.16.29.23.09.08.19.16.28.23l.29.23c.09.08.19.16.28.23l.29.24c.09.07.18.16.28.23.09.08.18.16.28.24l.27.24c.1.08.19.15.29.23l.27.24c.09.09.18.17.27.25l.28.24.27.24.27.25c.09.08.18.16.27.25.09.08.17.16.26.24.09.09.18.17.27.25.09.09.18.17.27.25l.26.26c.09.08.17.17.26.25l.26.26c.09.08.18.16.26.25.09.09.18.17.26.26.09.08.17.17.26.26.08.09.17.17.25.26l.26.26c.08.09.17.17.25.26.09.09.17.18.25.27.09.09.17.17.25.26l.25.27c.08.09.17.18.25.27.08.09.16.18.25.27l.24.27.24.27.24.28c.08.09.17.18.25.27l.24.28c.07.09.15.18.23.28l.24.28c.08.09.16.18.23.28.08.09.16.18.24.28.08.09.15.19.23.28.08.1.15.19.23.29l.23.28c.08.1.15.19.23.29l.23.29c.07.1.15.19.22.29l.22.29c.08.1.15.2.23.3.07.09.15.19.22.29.07.1.15.2.22.3.07.1.14.2.22.29l.21.3c.08.1.15.2.22.3l.22.3c.07.1.14.21.21.31l.21.3c.07.1.14.21.21.31l.21.3c.07.11.14.21.2.31.07.11.14.21.21.32.07.1.14.2.2.31.07.1.14.2.21.31.07.1.13.21.2.31.07.11.13.21.2.32l.2.32c.06.1.13.21.19.32.07.1.14.21.2.31.07.11.13.22.19.33.07.11.13.21.19.32.07.11.13.22.2.33.06.11.13.21.19.32l.18.33c.07.11.13.22.19.33l.18.33c.07.11.13.22.19.33.06.11.12.22.18.34l.18.33c.06.12.12.23.18.34.06.11.12.23.18.34.06.11.12.22.17.34.06.11.12.23.18.34.05.12.11.23.17.35l.17.34c.06.12.11.23.17.35l.17.34c.05.12.11.24.16.36l.17.35c.05.12.11.23.16.35.05.12.11.24.16.35.06.12.11.24.16.36l.16.36.15.36c.05.12.11.24.16.36s.1.24.15.37l.15.36c.05.12.1.25.15.37l.15.36c.05.13.09.25.14.38.05.12.1.25.14.37l.15.37c.04.13.09.25.14.38l.14.38c.04.12.09.25.13.38l.14.38c.04.13.09.25.13.38.04.13.09.26.13.38.04.13.09.26.13.39l.12.39c.05.13.09.26.13.39.04.13.09.26.13.39.04.14.07.27.11.4.04.13.08.27.12.4.04.13.08.26.12.4.04.13.08.26.12.4.04.13.07.27.11.4l.11.41c.03.13.07.27.11.4.03.14.07.27.11.41.03.14.06.28.1.41.03.14.07.28.1.42.03.14.07.28.1.41.03.14.07.28.1.42l.09.42c.04.14.07.28.1.43l.09.42.09.42c.03.15.05.29.08.44.03.14.06.29.09.43.02.14.05.29.08.43.03.15.06.29.08.44.03.14.05.29.07.44.03.15.05.29.08.44.02.15.05.3.07.44.02.15.05.3.07.45l.06.45c.03.15.05.3.07.45.02.16.04.31.06.46l.06.46c.02.15.03.3.05.46.02.15.04.31.06.46.01.16.03.31.05.46.01.16.03.32.04.48.02.15.03.31.05.47.01.16.02.31.04.47.01.16.03.32.04.48l.03.48c.01.16.02.33.03.49l.03.48c.01.17.02.33.03.49.01.17.01.33.02.5 0 .17.01.33.02.5 0 .16.01.33.01.49.01.17.01.34.01.51.01.17.01.34.01.51 0 .17 0 .34.01.51v1.03l-.01.52c0 .18-.01.36-.01.53-.01.18-.01.36-.02.53 0 .18-.01.36-.02.54 0 .18-.01.36-.02.54l-.03.54c-.01.18-.02.37-.03.55-.01.19-.03.37-.04.55-.01.19-.03.38-.04.56l-.03.29c-.08 1.49-.22 2.96-.4 4.41v.01c-1.91 14.87-9.9 29.33-20.68 39.65zM24.05 21.85zM3.82 70.62v.02c.08-.51.17-1.02.26-1.53-.09.51-.18 1.02-.26 1.53v-.02z"/>
    </clipPath>
  </defs>
  <g id="Layer_x0020_1">
    <g id="_105553668513632">
      <path d="M116.88 119.04c-.73-.45-1.48-.93-2.26-1.43-7.24-4.62-14.87-10.26-23.22-12.6l-.02-.01h-.02l-.01-.01h-.02c5.53-26.53 4.32-51.98-4.98-76.15-.09.27-.2.53-.3.79-.12.3-.25.6-.38.9-.15.33-.31.66-.47.98-.19.38-.39.75-.59 1.11-.27.46-.54.91-.83 1.34-.42.64-.87 1.26-1.34 1.86-1.5 1.91-3.28 3.65-5.27 5.27-.7.57-1.43 1.12-2.18 1.66-.54.39-1.1.78-1.67 1.16-.48.32-.97.63-1.46.94-.44.28-.88.55-1.33.82-.41.24-.83.48-1.24.72-.39.23-.79.45-1.18.67-.38.2-.76.41-1.14.61-.36.2-.72.39-1.09.59-.36.18-.71.36-1.07.55-.35.17-.69.35-1.05.53-.33.17-.68.33-1.02.5-.33.17-.67.33-1 .49l-.99.48c-.33.15-.66.31-.99.46-.32.15-.64.31-.97.46l-.96.45-.96.44-.95.43-.95.44-.95.43-.94.42-.94.43-.95.43-.94.43-.95.43-.95.44-.96.44c-.32.15-.64.29-.96.44-.32.15-.64.3-.97.45-.32.16-.65.31-.97.47-.33.15-.66.31-.99.47-.33.15-.66.31-.99.47-.34.17-.68.33-1.01.5-.35.17-.69.34-1.03.51-.35.17-.69.35-1.04.52-.35.18-.71.36-1.06.55-.36.18-.72.37-1.08.56-.37.2-.74.4-1.11.59l-1.14.63c-.39.22-.79.44-1.18.66-.41.24-.82.47-1.22.71-.43.25-.86.51-1.28.76-.46.28-.91.56-1.36.85-.49.31-.98.62-1.46.94-.54.35-1.07.71-1.59 1.08-.62.43-1.23.86-1.83 1.31-.77.57-1.53 1.16-2.28 1.76-1.31 1.06-2.59 2.18-3.81 3.35-1 1.05-1.86 2.07-2.6 3.06-.42.57-.81 1.13-1.16 1.67-.26.43-.51.84-.73 1.25-.19.35-.36.7-.52 1.04-.14.3-.27.6-.38.9-.11.27-.2.53-.28.8-.08.24-.15.48-.21.72-.06.23-.11.45-.15.67-.04.21-.08.41-.11.62l-.06.57c-.01.18-.02.36-.02.54 0 .17 0 .34.01.51l.03.48c.02.15.04.31.06.46.03.14.05.29.08.43s.07.28.11.41c.03.14.07.27.12.4.04.13.09.25.14.38.04.12.1.24.15.36.06.11.11.23.17.34.06.11.12.23.19.33.06.11.13.22.19.32.07.11.14.21.21.31.08.1.15.19.23.29.07.1.15.19.23.28.08.1.16.19.25.27.08.09.16.18.25.27.09.08.17.16.27.25l.27.24c.09.08.19.15.29.23.09.07.19.15.29.22l.3.21c.11.07.21.14.32.21.1.06.21.13.32.19.1.06.21.13.32.19.11.06.23.12.34.18.12.06.23.11.35.17.11.05.23.11.35.16.12.05.24.11.36.16s.24.1.37.14c.12.05.25.1.38.14.12.05.25.09.38.13.13.05.26.09.39.13.13.04.26.08.4.12.13.03.27.07.4.11.14.03.28.07.42.1l.42.09c.14.03.29.06.43.09s.29.06.43.08c.15.03.3.05.45.07.15.03.3.05.45.07.15.02.3.04.46.06.15.01.31.03.46.05.16.01.32.03.48.04l.48.03c.16.01.32.02.49.03.16.01.33.01.5.02.16 0 .33.01.5.01h.51c.18 0 .35 0 .53-.01.17 0 .35 0 .53-.01.18-.01.36-.02.54-.02.18-.01.36-.03.55-.04.18-.01.37-.03.56-.04.18-.02.37-.04.56-.05.2-.02.39-.04.58-.07.2-.02.39-.04.59-.07.2-.02.4-.05.6-.08.2-.03.41-.06.61-.1.21-.03.41-.06.62-.1.21-.04.42-.08.64-.12.21-.04.43-.08.64-.13l.66-.15c.23-.05.45-.1.68-.15l.69-.18c.23-.06.47-.12.7-.19.24-.07.49-.13.73-.21.24-.07.49-.14.74-.22.25-.08.51-.16.76-.25.26-.09.52-.18.79-.27.26-.09.53-.19.8-.29.28-.1.56-.21.84-.32.28-.11.57-.22.86-.34.3-.13.59-.25.89-.38.31-.14.63-.28.94-.42.32-.15.65-.3.97-.46.34-.16.69-.33 1.03-.51.36-.18.72-.37 1.08-.57.39-.21.78-.42 1.16-.64.42-.24.84-.48 1.26-.74.46-.28.92-.57 1.38-.86.52-.34 1.04-.69 1.57-1.06.63-.44 1.26-.89 1.88-1.37.88-.66 1.76-1.37 2.63-2.11 2.37-2.02 4.68-4.31 6.88-6.88.74-.87 1.47-1.77 2.18-2.7.49-.63.97-1.29 1.44-1.95.38-.54.76-1.09 1.13-1.65.29-.43.58-.87.86-1.31-.1.25-.2.5-.3.76-.12.29-.25.59-.37.88-.14.31-.27.62-.41.93-.15.32-.3.65-.46.97-.17.34-.34.69-.51 1.03-.19.36-.37.72-.57 1.08-.21.39-.42.77-.64 1.15-.23.42-.47.83-.72 1.24-.27.45-.54.9-.82 1.34-.31.5-.64.99-.96 1.48-.37.56-.76 1.11-1.15 1.66-.46.65-.93 1.3-1.42 1.94-.63.83-1.28 1.65-1.95 2.47-1.29 1.56-2.65 3.09-4.06 4.57-.87.91-1.76 1.8-2.67 2.67-1.48 1.41-3 2.77-4.56 4.05-.8.65-1.6 1.28-2.42 1.9-.62.47-1.26.93-1.89 1.37-.54.38-1.07.74-1.61 1.1-.48.31-.95.61-1.43.91-.43.27-.87.53-1.3.79-.4.23-.8.45-1.2.67-.37.21-.74.41-1.11.6-.35.19-.7.36-1.05.54-.33.16-.66.32-.99.47-.31.15-.63.29-.94.43-.3.13-.6.25-.9.38-.28.11-.57.23-.85.34-.28.1-.55.2-.82.3-.27.1-.53.19-.79.27-.26.09-.51.17-.76.25-.25.08-.49.15-.74.22-.24.07-.47.13-.71.19l-.69.18c-.22.05-.44.1-.67.15-.21.04-.43.09-.64.13-.21.04-.42.08-.63.11-.21.04-.41.07-.61.1s-.4.05-.6.08c-.19.02-.38.04-.58.06-.19.02-.37.04-.56.05-.19.01-.37.02-.55.03-.18.01-.36.02-.54.02-.17.01-.35.01-.52.01h-.51c-.17-.01-.34-.01-.5-.02-.17-.01-.33-.02-.49-.03-.16-.01-.32-.02-.48-.04-.16-.01-.31-.03-.47-.04l-.45-.06c-.15-.03-.3-.05-.45-.07-.15-.03-.29-.05-.44-.08-.14-.03-.28-.06-.43-.09-.13-.03-.27-.06-.41-.1-.14-.03-.28-.06-.41-.1-.14-.04-.27-.08-.41-.12-.13-.03-.26-.07-.39-.12-.13-.04-.26-.08-.39-.13-.12-.04-.25-.09-.38-.13-.12-.05-.24-.1-.37-.15l-.36-.15c-.12-.05-.24-.11-.36-.16-.11-.05-.23-.11-.35-.17-.11-.05-.23-.11-.34-.17-.11-.06-.23-.12-.34-.18l-.33-.18c-.11-.07-.21-.13-.32-.2-.11-.06-.21-.13-.32-.19-.1-.07-.21-.14-.31-.21-.1-.07-.2-.14-.31-.21l-.3-.21c-.09-.08-.19-.15-.29-.23-.1-.07-.19-.15-.29-.22-.09-.08-.19-.16-.28-.23-.1-.08-.19-.16-.28-.24-.09-.08-.18-.16-.27-.25l-.27-.24c-.09-.09-.18-.17-.26-.26-.09-.08-.18-.17-.26-.26-.09-.08-.17-.17-.25-.26-.09-.09-.17-.18-.25-.27-.08-.09-.17-.18-.25-.27-.08-.09-.16-.18-.23-.28-.08-.09-.16-.18-.24-.28-.08-.09-.15-.19-.23-.28-.07-.1-.15-.2-.22-.3-.08-.09-.15-.19-.22-.29-.08-.1-.15-.2-.22-.3l-.21-.3c-.07-.1-.14-.21-.21-.31-.07-.1-.14-.21-.21-.31-.06-.11-.13-.21-.2-.32-.06-.1-.13-.21-.19-.32-.07-.11-.13-.21-.2-.32l-.18-.33c-.07-.11-.13-.22-.19-.33-.06-.11-.12-.22-.18-.34l-.18-.33c-.05-.12-.11-.23-.17-.35-.06-.11-.11-.23-.17-.34-.06-.12-.11-.23-.17-.35l-.02-.04-.13-.32-.16-.36-.15-.36-.15-.37-.15-.36-.15-.37-.15-.37-.14-.37-.15-.37-.14-.38-.14-.38-.13-.37-.14-.39-.13-.38-.13-.38-.13-.39-.13-.39-.13-.38-.12-.4-.13-.39-.12-.4-.11-.39-.12-.4-.11-.4-.12-.41-.11-.4-.1-.41-.11-.41-.1-.42-.11-.41C.67 80.17 0 74.73 0 69.13 0 24.14 42.16-8.46 85.36 1.95l.41.1c.14.03.28.07.42.1.13.04.27.07.41.11.13.03.27.07.4.11l.41.11c.13.03.27.07.4.11l.41.11.39.12.4.12c.13.04.27.08.4.12l.39.12.39.12c.13.05.26.09.39.13.13.04.26.08.39.13l.39.12c.13.05.25.09.38.14l.38.13c.13.05.26.09.38.14.13.04.26.09.39.13.12.05.24.1.37.14.12.05.25.1.37.15.13.04.25.09.38.14.12.05.25.09.37.14.12.05.25.1.37.15l.36.15.37.15c.12.05.25.1.37.15l.36.15c.12.05.24.11.36.16l.36.16.36.15c.11.06.23.11.35.16.12.06.24.11.35.17l.36.16c.11.06.23.11.35.16.11.06.23.11.35.17.11.05.23.11.34.17.12.06.23.11.35.17.11.06.23.11.34.17 2.26 1.13 4.45 2.39 6.56 3.76.11.07.21.14.31.21l.32.2c.1.07.2.14.31.2l.3.21c.11.07.21.14.31.21l.3.21c.11.08.21.15.31.22l.3.21.3.21c.1.08.2.15.3.22l.3.22c.1.07.2.14.3.22l.29.22c.1.07.2.15.29.22l.3.23c.09.07.19.14.29.22.1.08.19.15.29.22.1.08.19.16.29.23.09.08.19.16.28.23l.29.23c.09.08.19.16.28.23l.29.24c.09.07.18.16.28.23.09.08.18.16.28.24l.27.24c.1.08.19.15.29.23l.27.24c.09.09.18.17.27.25l.28.24.27.24.27.25c.09.08.18.16.27.25.09.08.17.16.26.24.09.09.18.17.27.25.09.09.18.17.27.25l.26.26c.09.08.17.17.26.25l.26.26c.09.08.18.16.26.25.09.09.18.17.26.26.09.08.17.17.26.26.08.09.17.17.25.26l.26.26c.08.09.17.17.25.26.09.09.17.18.25.27.09.09.17.17.25.26l.25.27c.08.09.17.18.25.27.08.09.16.18.25.27l.24.27.24.27.24.28c.08.09.17.18.25.27l.24.28c.07.09.15.18.23.28l.24.28c.08.09.16.18.23.28.08.09.16.18.24.28.08.09.15.19.23.28.08.1.15.19.23.29l.23.28c.08.1.15.19.23.29l.23.29c.07.1.15.19.22.29l.22.29c.08.1.15.2.23.3.07.09.15.19.22.29.07.1.15.2.22.3.07.1.14.2.22.29l.21.3c.08.1.15.2.22.3l.22.3c.07.1.14.21.21.31l.21.3c.07.1.14.21.21.31l.21.3c.07.11.14.21.2.31.07.11.14.21.21.32.07.1.14.2.2.31.07.1.14.2.21.31.07.1.13.21.2.31.07.11.13.21.2.32l.2.32c.06.1.13.21.19.32.07.1.14.21.2.31.07.11.13.22.19.33.07.11.13.21.19.32.07.11.13.22.2.33.06.11.13.21.19.32l.18.33c.07.11.13.22.19.33l.18.33c.07.11.13.22.19.33.06.11.12.22.18.34l.18.33c.06.12.12.23.18.34.06.11.12.23.18.34.06.11.12.22.17.34.06.11.12.23.18.34.05.12.11.23.17.35l.17.34c.06.12.11.23.17.35l.17.34c.05.12.11.24.16.36l.17.35c.05.12.11.23.16.35.05.12.11.24.16.35.06.12.11.24.16.36l.16.36.15.36c.05.12.11.24.16.36s.1.24.15.37l.15.36c.05.12.1.25.15.37l.15.36c.05.13.09.25.14.38.05.12.1.25.14.37l.15.37c.04.13.09.25.14.38l.14.38c.04.12.09.25.13.38l.14.38c.04.13.09.25.13.38.04.13.09.26.13.38.04.13.09.26.13.39l.12.39c.05.13.09.26.13.39.04.13.09.26.13.39.04.14.07.27.11.4.04.13.08.27.12.4.04.13.08.26.12.4.04.13.08.26.12.4.04.13.07.27.11.4l.11.41c.03.13.07.27.11.4.03.14.07.27.11.41.03.14.06.28.1.41.03.14.07.28.1.42.03.14.07.28.1.41.03.14.07.28.1.42l.09.42c.04.14.07.28.1.43l.09.42.09.42c.03.15.05.29.08.44.03.14.06.29.09.43.02.14.05.29.08.43.03.15.06.29.08.44.03.14.05.29.07.44.03.15.05.29.08.44.02.15.05.3.07.44.02.15.05.3.07.45l.06.45c.03.15.05.3.07.45.02.16.04.31.06.46l.06.46c.02.15.03.3.05.46.02.15.04.31.06.46.01.16.03.31.05.46.01.16.03.32.04.48.02.15.03.31.05.47.01.16.02.31.04.47.01.16.03.32.04.48l.03.48c.01.16.02.33.03.49l.03.48c.01.17.02.33.03.49.01.17.01.33.02.5 0 .17.01.33.02.5 0 .16.01.33.01.49.01.17.01.34.01.51.01.17.01.34.01.51 0 .17 0 .34.01.51v1.03l-.01.52c0 .18-.01.36-.01.53-.01.18-.01.36-.02.53 0 .18-.01.36-.02.54 0 .18-.01.36-.02.54l-.03.54c-.01.18-.02.37-.03.55-.01.19-.03.37-.04.55-.01.19-.03.38-.04.56l-.03.29c-.08 1.49-.22 2.96-.4 4.41v.01c-1.91 14.87-9.9 29.33-20.68 39.65zM3.82 70.62v.02c.08-.51.17-1.02.26-1.53-.09.51-.18 1.02-.26 1.53v-.02z" fill="none"/>
      <path id="1" d="M116.88 119.04c-.73-.45-1.48-.93-2.26-1.43-7.24-4.62-14.87-10.26-23.22-12.6l-.02-.01h-.02l-.01-.01h-.02c5.53-26.53 4.32-51.98-4.98-76.15-.09.27-.2.53-.3.79-.12.3-.25.6-.38.9-.15.33-.31.66-.47.98-.19.38-.39.75-.59 1.11-.27.46-.54.91-.83 1.34-.42.64-.87 1.26-1.34 1.86-1.5 1.91-3.28 3.65-5.27 5.27-.7.57-1.43 1.12-2.18 1.66-.54.39-1.1.78-1.67 1.16-.48.32-.97.63-1.46.94-.44.28-.88.55-1.33.82-.41.24-.83.48-1.24.72-.39.23-.79.45-1.18.67-.38.2-.76.41-1.14.61-.36.2-.72.39-1.09.59-.36.18-.71.36-1.07.55-.35.17-.69.35-1.05.53-.33.17-.68.33-1.02.5-.33.17-.67.33-1 .49l-.99.48c-.33.15-.66.31-.99.46-.32.15-.64.31-.97.46l-.96.45-.96.44-.95.43-.95.44-.95.43-.94.42-.94.43-.95.43-.94.43-.95.43-.95.44-.96.44c-.32.15-.64.29-.96.44-.32.15-.64.3-.97.45-.32.16-.65.31-.97.47-.33.15-.66.31-.99.47-.33.15-.66.31-.99.47-.34.17-.68.33-1.01.5-.35.17-.69.34-1.03.51-.35.17-.69.35-1.04.52-.35.18-.71.36-1.06.55-.36.18-.72.37-1.08.56-.37.2-.74.4-1.11.59l-1.14.63c-.39.22-.79.44-1.18.66-.41.24-.82.47-1.22.71-.43.25-.86.51-1.28.76-.46.28-.91.56-1.36.85-.49.31-.98.62-1.46.94-.54.35-1.07.71-1.59 1.08-.62.43-1.23.86-1.83 1.31-.77.57-1.53 1.16-2.28 1.76-1.31 1.06-2.59 2.18-3.81 3.35-1 1.05-1.86 2.07-2.6 3.06-.42.57-.81 1.13-1.16 1.67-.26.43-.51.84-.73 1.25-.19.35-.36.7-.52 1.04-.14.3-.27.6-.38.9-.11.27-.2.53-.28.8-.08.24-.15.48-.21.72-.06.23-.11.45-.15.67-.04.21-.08.41-.11.62l-.06.57c-.01.18-.02.36-.02.54 0 .17 0 .34.01.51l.03.48c.02.15.04.31.06.46.03.14.05.29.08.43s.07.28.11.41c.03.14.07.27.12.4.04.13.09.25.14.38.04.12.1.24.15.36.06.11.11.23.17.34.06.11.12.23.19.33.06.11.13.22.19.32.07.11.14.21.21.31.08.1.15.19.23.29.07.1.15.19.23.28.08.1.16.19.25.27.08.09.16.18.25.27.09.08.17.16.27.25l.27.24c.09.08.19.15.29.23.09.07.19.15.29.22l.3.21c.11.07.21.14.32.21.1.06.21.13.32.19.1.06.21.13.32.19.11.06.23.12.34.18.12.06.23.11.35.17.11.05.23.11.35.16.12.05.24.11.36.16s.24.1.37.14c.12.05.25.1.38.14.12.05.25.09.38.13.13.05.26.09.39.13.13.04.26.08.4.12.13.03.27.07.4.11.14.03.28.07.42.1l.42.09c.14.03.29.06.43.09s.29.06.43.08c.15.03.3.05.45.07.15.03.3.05.45.07.15.02.3.04.46.06.15.01.31.03.46.05.16.01.32.03.48.04l.48.03c.16.01.32.02.49.03.16.01.33.01.5.02.16 0 .33.01.5.01h.51c.18 0 .35 0 .53-.01.17 0 .35 0 .53-.01.18-.01.36-.02.54-.02.18-.01.36-.03.55-.04.18-.01.37-.03.56-.04.18-.02.37-.04.56-.05.2-.02.39-.04.58-.07.2-.02.39-.04.59-.07.2-.02.4-.05.6-.08.2-.03.41-.06.61-.1.21-.03.41-.06.62-.1.21-.04.42-.08.64-.12.21-.04.43-.08.64-.13l.66-.15c.23-.05.45-.1.68-.15l.69-.18c.23-.06.47-.12.7-.19.24-.07.49-.13.73-.21.24-.07.49-.14.74-.22.25-.08.51-.16.76-.25.26-.09.52-.18.79-.27.26-.09.53-.19.8-.29.28-.1.56-.21.84-.32.28-.11.57-.22.86-.34.3-.13.59-.25.89-.38.31-.14.63-.28.94-.42.32-.15.65-.3.97-.46.34-.16.69-.33 1.03-.51.36-.18.72-.37 1.08-.57.39-.21.78-.42 1.16-.64.42-.24.84-.48 1.26-.74.46-.28.92-.57 1.38-.86.52-.34 1.04-.69 1.57-1.06.63-.44 1.26-.89 1.88-1.37.88-.66 1.76-1.37 2.63-2.11 2.37-2.02 4.68-4.31 6.88-6.88.74-.87 1.47-1.77 2.18-2.7.49-.63.97-1.29 1.44-1.95.38-.54.76-1.09 1.13-1.65.29-.43.58-.87.86-1.31-.1.25-.2.5-.3.76-.12.29-.25.59-.37.88-.14.31-.27.62-.41.93-.15.32-.3.65-.46.97-.17.34-.34.69-.51 1.03-.19.36-.37.72-.57 1.08-.21.39-.42.77-.64 1.15-.23.42-.47.83-.72 1.24-.27.45-.54.9-.82 1.34-.31.5-.64.99-.96 1.48-.37.56-.76 1.11-1.15 1.66-.46.65-.93 1.3-1.42 1.94-.63.83-1.28 1.65-1.95 2.47-1.29 1.56-2.65 3.09-4.06 4.57-.87.91-1.76 1.8-2.67 2.67-1.48 1.41-3 2.77-4.56 4.05-.8.65-1.6 1.28-2.42 1.9-.62.47-1.26.93-1.89 1.37-.54.38-1.07.74-1.61 1.1-.48.31-.95.61-1.43.91-.43.27-.87.53-1.3.79-.4.23-.8.45-1.2.67-.37.21-.74.41-1.11.6-.35.19-.7.36-1.05.54-.33.16-.66.32-.99.47-.31.15-.63.29-.94.43-.3.13-.6.25-.9.38-.28.11-.57.23-.85.34-.28.1-.55.2-.82.3-.27.1-.53.19-.79.27-.26.09-.51.17-.76.25-.25.08-.49.15-.74.22-.24.07-.47.13-.71.19l-.69.18c-.22.05-.44.1-.67.15-.21.04-.43.09-.64.13-.21.04-.42.08-.63.11-.21.04-.41.07-.61.1s-.4.05-.6.08c-.19.02-.38.04-.58.06-.19.02-.37.04-.56.05-.19.01-.37.02-.55.03-.18.01-.36.02-.54.02-.17.01-.35.01-.52.01h-.51c-.17-.01-.34-.01-.5-.02-.17-.01-.33-.02-.49-.03-.16-.01-.32-.02-.48-.04-.16-.01-.31-.03-.47-.04l-.45-.06c-.15-.03-.3-.05-.45-.07-.15-.03-.29-.05-.44-.08-.14-.03-.28-.06-.43-.09-.13-.03-.27-.06-.41-.1-.14-.03-.28-.06-.41-.1-.14-.04-.27-.08-.41-.12-.13-.03-.26-.07-.39-.12-.13-.04-.26-.08-.39-.13-.12-.04-.25-.09-.38-.13-.12-.05-.24-.1-.37-.15l-.36-.15c-.12-.05-.24-.11-.36-.16-.11-.05-.23-.11-.35-.17-.11-.05-.23-.11-.34-.17-.11-.06-.23-.12-.34-.18l-.33-.18c-.11-.07-.21-.13-.32-.2-.11-.06-.21-.13-.32-.19-.1-.07-.21-.14-.31-.21-.1-.07-.2-.14-.31-.21l-.3-.21c-.09-.08-.19-.15-.29-.23-.1-.07-.19-.15-.29-.22-.09-.08-.19-.16-.28-.23-.1-.08-.19-.16-.28-.24-.09-.08-.18-.16-.27-.25l-.27-.24c-.09-.09-.18-.17-.26-.26-.09-.08-.18-.17-.26-.26-.09-.08-.17-.17-.25-.26-.09-.09-.17-.18-.25-.27-.08-.09-.17-.18-.25-.27-.08-.09-.16-.18-.23-.28-.08-.09-.16-.18-.24-.28-.08-.09-.15-.19-.23-.28-.07-.1-.15-.2-.22-.3-.08-.09-.15-.19-.22-.29-.08-.1-.15-.2-.22-.3l-.21-.3c-.07-.1-.14-.21-.21-.31-.07-.1-.14-.21-.21-.31-.06-.11-.13-.21-.2-.32-.06-.1-.13-.21-.19-.32-.07-.11-.13-.21-.2-.32l-.18-.33c-.07-.11-.13-.22-.19-.33-.06-.11-.12-.22-.18-.34l-.18-.33c-.05-.12-.11-.23-.17-.35-.06-.11-.11-.23-.17-.34-.06-.12-.11-.23-.17-.35l-.02-.04-.13-.32-.16-.36-.15-.36-.15-.37-.15-.36-.15-.37-.15-.37-.14-.37-.15-.37-.14-.38-.14-.38-.13-.37-.14-.39-.13-.38-.13-.38-.13-.39-.13-.39-.13-.38-.12-.4-.13-.39-.12-.4-.11-.39-.12-.4-.11-.4-.12-.41-.11-.4-.1-.41-.11-.41-.1-.42-.11-.41C.67 80.17 0 74.73 0 69.13 0 24.14 42.16-8.46 85.36 1.95l.41.1c.14.03.28.07.42.1.13.04.27.07.41.11.13.03.27.07.4.11l.41.11c.13.03.27.07.4.11l.41.11.39.12.4.12c.13.04.27.08.4.12l.39.12.39.12c.13.05.26.09.39.13.13.04.26.08.39.13l.39.12c.13.05.25.09.38.14l.38.13c.13.05.26.09.38.14.13.04.26.09.39.13.12.05.24.1.37.14.12.05.25.1.37.15.13.04.25.09.38.14.12.05.25.09.37.14.12.05.25.1.37.15l.36.15.37.15c.12.05.25.1.37.15l.36.15c.12.05.24.11.36.16l.36.16.36.15c.11.06.23.11.35.16.12.06.24.11.35.17l.36.16c.11.06.23.11.35.16.11.06.23.11.35.17.11.05.23.11.34.17.12.06.23.11.35.17.11.06.23.11.34.17 2.26 1.13 4.45 2.39 6.56 3.76.11.07.21.14.31.21l.32.2c.1.07.2.14.31.2l.3.21c.11.07.21.14.31.21l.3.21c.11.08.21.15.31.22l.3.21.3.21c.1.08.2.15.3.22l.3.22c.1.07.2.14.3.22l.29.22c.1.07.2.15.29.22l.3.23c.09.07.19.14.29.22.1.08.19.15.29.22.1.08.19.16.29.23.09.08.19.16.28.23l.29.23c.09.08.19.16.28.23l.29.24c.09.07.18.16.28.23.09.08.18.16.28.24l.27.24c.1.08.19.15.29.23l.27.24c.09.09.18.17.27.25l.28.24.27.24.27.25c.09.08.18.16.27.25.09.08.17.16.26.24.09.09.18.17.27.25.09.09.18.17.27.25l.26.26c.09.08.17.17.26.25l.26.26c.09.08.18.16.26.25.09.09.18.17.26.26.09.08.17.17.26.26.08.09.17.17.25.26l.26.26c.08.09.17.17.25.26.09.09.17.18.25.27.09.09.17.17.25.26l.25.27c.08.09.17.18.25.27.08.09.16.18.25.27l.24.27.24.27.24.28c.08.09.17.18.25.27l.24.28c.07.09.15.18.23.28l.24.28c.08.09.16.18.23.28.08.09.16.18.24.28.08.09.15.19.23.28.08.1.15.19.23.29l.23.28c.08.1.15.19.23.29l.23.29c.07.1.15.19.22.29l.22.29c.08.1.15.2.23.3.07.09.15.19.22.29.07.1.15.2.22.3.07.1.14.2.22.29l.21.3c.08.1.15.2.22.3l.22.3c.07.1.14.21.21.31l.21.3c.07.1.14.21.21.31l.21.3c.07.11.14.21.2.31.07.11.14.21.21.32.07.1.14.2.2.31.07.1.14.2.21.31.07.1.13.21.2.31.07.11.13.21.2.32l.2.32c.06.1.13.21.19.32.07.1.14.21.2.31.07.11.13.22.19.33.07.11.13.21.19.32.07.11.13.22.2.33.06.11.13.21.19.32l.18.33c.07.11.13.22.19.33l.18.33c.07.11.13.22.19.33.06.11.12.22.18.34l.18.33c.06.12.12.23.18.34.06.11.12.23.18.34.06.11.12.22.17.34.06.11.12.23.18.34.05.12.11.23.17.35l.17.34c.06.12.11.23.17.35l.17.34c.05.12.11.24.16.36l.17.35c.05.12.11.23.16.35.05.12.11.24.16.35.06.12.11.24.16.36l.16.36.15.36c.05.12.11.24.16.36s.1.24.15.37l.15.36c.05.12.1.25.15.37l.15.36c.05.13.09.25.14.38.05.12.1.25.14.37l.15.37c.04.13.09.25.14.38l.14.38c.04.12.09.25.13.38l.14.38c.04.13.09.25.13.38.04.13.09.26.13.38.04.13.09.26.13.39l.12.39c.05.13.09.26.13.39.04.13.09.26.13.39.04.14.07.27.11.4.04.13.08.27.12.4.04.13.08.26.12.4.04.13.08.26.12.4.04.13.07.27.11.4l.11.41c.03.13.07.27.11.4.03.14.07.27.11.41.03.14.06.28.1.41.03.14.07.28.1.42.03.14.07.28.1.41.03.14.07.28.1.42l.09.42c.04.14.07.28.1.43l.09.42.09.42c.03.15.05.29.08.44.03.14.06.29.09.43.02.14.05.29.08.43.03.15.06.29.08.44.03.14.05.29.07.44.03.15.05.29.08.44.02.15.05.3.07.44.02.15.05.3.07.45l.06.45c.03.15.05.3.07.45.02.16.04.31.06.46l.06.46c.02.15.03.3.05.46.02.15.04.31.06.46.01.16.03.31.05.46.01.16.03.32.04.48.02.15.03.31.05.47.01.16.02.31.04.47.01.16.03.32.04.48l.03.48c.01.16.02.33.03.49l.03.48c.01.17.02.33.03.49.01.17.01.33.02.5 0 .17.01.33.02.5 0 .16.01.33.01.49.01.17.01.34.01.51.01.17.01.34.01.51 0 .17 0 .34.01.51v1.03l-.01.52c0 .18-.01.36-.01.53-.01.18-.01.36-.02.53 0 .18-.01.36-.02.54 0 .18-.01.36-.02.54l-.03.54c-.01.18-.02.37-.03.55-.01.19-.03.37-.04.55-.01.19-.03.38-.04.56l-.03.29c-.08 1.49-.22 2.96-.4 4.41v.01c-1.91 14.87-9.9 29.33-20.68 39.65zM24.05 21.85zM3.82 70.62v.02c.08-.51.17-1.02.26-1.53-.09.51-.18 1.02-.26 1.53v-.02z" fill="#02a350"/>
      <g clip-path="url(#id0)">
        <g id="_105553668513152">
          <path id="2" class="fil2" d="M86.41 28.66l57.05 56.17c13.49 39.61-25.95 64.24-76.28 70.42-50.32 6.18-13.1-6.84-6.26-15.95 6.83-9.11 25.06-109.93 25.49-110.64z"/>
          <path d="M86.03 28.99c11.15 21.28 17.11 48.01 7.52 77.89-.09.26-5.59-1.26-4.81-1.63 0 0-2.71-76.65-2.71-76.26z" fill="#007a3b"/>
        </g>
      </g>
      <path class="fil2" d="M48.88 119.19c-4.42 4.9-8.38 10.89-11.25 16.69-.26.53-.38.78-.62 1.25l-.45 1.25c1.24-1.44 2.66-4.79 8.03-10.74 6.72-7.46 14.69-9.87 23.74-8.08 3.09.61 9.31 3.66 12.35 5.14l9.16 4.42c.76.35 2.57 1.12 3.23 1.62l-13-4.29c-3.11-.84-4.41-1.39-7.99-2.09-3.65-.72-6.85-1.36-10.34-.22-3.81 1.25-7.16 2.76-10.52 6.48-.73.81-1.74 2.17-1.95 2.91.63.32 3.77.44 6.37 1.36 1.04.37 2 .65 3.21 1.09 12.93 4.78 27.25 14.51 41.88 17.64 13.84 2.96 26.31-2.81 37.26-10.98 4.31-3.21 7.72-6.75 12.01-11.51l-.18-.16c-1.61 1.78-4.23 1.84-6.04 1.78-2.22-.07-2.9-.35-4.77-.72-6.37-1.28-14.96-5.86-20.79-9.33-2.26-1.34-4.2-2.55-6.51-4.03-11.13-7.11-20.6-14.7-35.21-13.95-9.8.5-19.2 5.13-27.62 14.47z"/>
    </g>
  </g>
</svg>
