<?xml version="1.0" encoding="UTF-8"?>
<!DOCTYPE svg PUBLIC "-//W3C//DTD SVG 1.1//EN" "http://www.w3.org/Graphics/SVG/1.1/DTD/svg11.dtd">
<!-- Creator: CorelDRAW -->
<svg xmlns="http://www.w3.org/2000/svg" xml:space="preserve" width="198px" height="30px" version="1.1" style="shape-rendering:geometricPrecision; text-rendering:geometricPrecision; image-rendering:optimizeQuality; fill-rule:evenodd; clip-rule:evenodd"
viewBox="0 0 198 29.98"
 xmlns:xlink="http://www.w3.org/1999/xlink"
 xmlns:xodm="http://www.corel.com/coreldraw/odm/2003">
 <defs>
  <style type="text/css">
   <![CDATA[
    .fil0 {fill:#FFFCD6;fill-rule:nonzero}
   ]]>
  </style>
 </defs>
 <g id="Layer_x0020_1">
  <metadata id="CorelCorpID_0Corel-Layer"/>
  <g id="_105553723908032">
   <path class="fil0" d="M12.99 21.67c0.79,0 1.37,-0.2 1.76,-0.6 0.39,-0.41 0.59,-1.05 0.59,-1.95l0 -10.41c0,-0.89 -0.2,-1.54 -0.59,-1.94 -0.39,-0.41 -0.97,-0.61 -1.76,-0.61 -0.78,0 -1.36,0.2 -1.75,0.61 -0.39,0.4 -0.59,1.05 -0.59,1.94l0 10.41c0,0.9 0.2,1.54 0.59,1.95 0.39,0.4 0.97,0.6 1.75,0.6zm13.17 -8.79c0,1.29 -0.15,2.4 -0.43,3.35 -0.29,0.94 -0.64,1.74 -1.04,2.41 -0.4,0.66 -0.81,1.21 -1.24,1.65 -0.42,0.44 -0.77,0.78 -1.05,1.03l0.21 0.35 4.1 0 0 8.34c-3.63,0 -6.63,-0.08 -9.01,-0.23 -2.38,-0.14 -4.35,-0.39 -5.91,-0.74 -1.56,-0.34 -2.88,-0.75 -3.96,-1.24 -0.69,-0.27 -1.53,-0.73 -2.5,-1.38 -0.98,-0.64 -1.94,-1.57 -2.88,-2.79 -0.94,-1.21 -1.61,-2.62 -2.02,-4.2 -0.4,-1.59 -0.6,-3.42 -0.6,-5.51 0,-2.51 0.31,-4.64 0.93,-6.41 0.62,-1.77 1.5,-3.21 2.64,-4.31 1.13,-1.1 2.52,-1.91 4.15,-2.41 1.63,-0.51 3.45,-0.76 5.44,-0.76 2,0 3.82,0.26 5.45,0.78 1.63,0.51 3.01,1.3 4.15,2.36 1.14,1.05 2.02,2.39 2.64,4.01 0.62,1.62 0.93,3.52 0.93,5.7z"/>
   <path class="fil0" d="M36.24 19.46c0,0.79 0.17,1.35 0.5,1.69 0.33,0.35 0.83,0.52 1.5,0.52 0.67,0 1.17,-0.17 1.5,-0.52 0.33,-0.34 0.5,-0.9 0.5,-1.69l0 -5.65 -1.86 0 0 -5.65 9.78 0 0 13.51 1.52 0 0 5.65 -9.44 0 0 -2.34c-0.28,0.3 -0.59,0.61 -0.95,0.93 -0.36,0.32 -0.76,0.62 -1.22,0.89 -0.46,0.28 -0.99,0.51 -1.59,0.71 -0.59,0.2 -1.28,0.29 -2.06,0.29 -1.89,0 -3.38,-0.67 -4.47,-2.01 -1.09,-1.35 -1.63,-3.45 -1.63,-6.33l0 -5.65 -1.52 0 0 -5.65 9.44 0 0 11.3z"/>
   <path class="fil0" d="M60.18 7.68c1.77,0 3.24,0.26 4.41,0.77 1.17,0.52 2.11,1.19 2.82,2.02 0.72,0.83 1.22,1.77 1.5,2.83 0.29,1.05 0.43,2.12 0.43,3.2l0 2.48 -11.16 0 0 0.21c0,0.83 0.23,1.45 0.71,1.86 0.47,0.41 1.32,0.62 2.56,0.62 1.52,0 2.91,-0.12 4.17,-0.35 1.27,-0.22 2.31,-0.48 3.14,-0.75l0 5.51c-0.42,0.21 -0.89,0.41 -1.43,0.6 -0.54,0.2 -1.16,0.38 -1.85,0.55 -0.69,0.18 -1.47,0.31 -2.34,0.42 -0.87,0.1 -1.86,0.15 -2.96,0.15 -1.59,0 -3.02,-0.2 -4.31,-0.62 -1.29,-0.41 -2.38,-1.04 -3.29,-1.87 -0.91,-0.84 -1.6,-1.89 -2.09,-3.14 -0.48,-1.25 -0.72,-2.73 -0.72,-4.43 0,-1.68 0.24,-3.15 0.72,-4.41 0.49,-1.26 1.18,-2.31 2.09,-3.15 0.91,-0.84 2,-1.47 3.29,-1.88 1.29,-0.41 2.72,-0.62 4.31,-0.62zm0 6.13c-0.67,0 -1.17,0.18 -1.5,0.52 -0.33,0.34 -0.5,0.91 -0.5,1.69l0 0.21 4 0 0 -0.21c0,-0.78 -0.17,-1.35 -0.5,-1.69 -0.34,-0.34 -0.84,-0.52 -1.5,-0.52z"/>
   <path class="fil0" d="M93.42 11.81c0.64,0 1.13,-0.17 1.48,-0.51 0.34,-0.35 0.52,-0.91 0.52,-1.69l0 -1.24c0,-0.78 -0.17,-1.35 -0.5,-1.69 -0.34,-0.34 -0.84,-0.52 -1.5,-0.52l-1.17 0 0 5.65 1.17 0zm2.13 15.51l-15.02 0 0 -5.65 2.07 0 0 -15.51 -2.07 0 0 -5.65 15.47 0c1.4,0 2.67,0.15 3.81,0.43 1.14,0.29 2.1,0.76 2.88,1.4 0.78,0.64 1.38,1.48 1.81,2.51 0.42,1.04 0.63,2.29 0.63,3.76 0,1.49 -0.21,2.75 -0.63,3.77 -0.43,1.03 -1.03,1.86 -1.81,2.5 -0.78,0.64 -1.74,1.11 -2.88,1.4 -1.14,0.28 -2.41,0.43 -3.81,0.43l-3.75 0 0 4.96 3.3 0 0 5.65z"/>
   <polygon class="fil0" points="104.95,0.51 114.39,0.51 114.39,21.67 115.91,21.67 115.91,27.32 104.95,27.32 104.95,21.67 106.46,21.67 106.46,6.16 104.95,6.16 "/>
   <path class="fil0" d="M128.4 24.98c-0.2,0.27 -0.48,0.58 -0.83,0.91 -0.34,0.33 -0.76,0.64 -1.25,0.91 -0.5,0.28 -1.07,0.51 -1.73,0.71 -0.65,0.2 -1.39,0.29 -2.22,0.29 -2,0 -3.56,-0.46 -4.68,-1.38 -1.13,-0.91 -1.69,-2.25 -1.69,-3.99 0,-2.18 1.01,-3.83 3.05,-4.95 2.03,-1.11 5.15,-1.67 9.35,-1.67 0,-0.64 -0.2,-1.14 -0.62,-1.48 -0.41,-0.34 -1.26,-0.52 -2.55,-0.52 -1.38,0 -2.76,0.11 -4.15,0.31 -1.39,0.21 -2.67,0.44 -3.84,0.69l0 -5.92c1.17,-0.33 2.61,-0.61 4.3,-0.85 1.7,-0.24 3.45,-0.36 5.24,-0.36 1.84,0 3.37,0.17 4.6,0.52 1.23,0.34 2.21,0.86 2.95,1.56 0.73,0.7 1.25,1.58 1.55,2.62 0.3,1.05 0.45,2.26 0.45,3.64l0 5.65 1.51 0 0 5.65 -9.44 0 0 -2.34zm0 -5.72c-1.42,0 -2.44,0.1 -3.06,0.29 -0.62,0.2 -0.94,0.53 -0.94,1.02 0,0.73 0.64,1.1 1.9,1.1 1.4,0 2.1,-0.74 2.1,-2.21l0 -0.2z"/>
   <path class="fil0" d="M150.13 21.67l1.52 0 0 -5.65c0,-0.78 -0.17,-1.35 -0.5,-1.69 -0.33,-0.34 -0.83,-0.52 -1.5,-0.52 -0.67,0 -1.17,0.18 -1.5,0.52 -0.33,0.34 -0.5,0.91 -0.5,1.69l0 5.65 1.52 0 0 5.65 -10.96 0 0 -5.65 1.52 0 0 -7.86 -1.52 0 0 -5.65 9.44 0 0 2.35c0.28,-0.28 0.59,-0.59 0.93,-0.92 0.35,-0.33 0.75,-0.64 1.23,-0.91 0.47,-0.28 1,-0.51 1.6,-0.71 0.59,-0.19 1.28,-0.29 2.07,-0.29 1.88,0 3.37,0.67 4.46,2.02 1.09,1.34 1.63,3.45 1.63,6.32l0 5.65 1.52 0 0 5.65 -10.96 0 0 -5.65z"/>
   <path class="fil0" d="M170.9 8.16l4.65 0 0 5.65 -4.65 0 0 5.65c0,0.79 0.17,1.35 0.5,1.69 0.33,0.35 0.83,0.52 1.5,0.52 0.92,0 1.87,-0.1 2.86,-0.31l0 5.41c-0.74,0.28 -1.62,0.52 -2.64,0.72 -1.02,0.21 -2.12,0.31 -3.29,0.31 -1.17,0 -2.21,-0.12 -3.12,-0.38 -0.91,-0.25 -1.67,-0.68 -2.29,-1.29 -0.62,-0.61 -1.1,-1.41 -1.43,-2.39 -0.33,-0.99 -0.5,-2.22 -0.5,-3.69l0 -6.24 -1.51 0 0 -5.65c0.91,0 1.58,-0.23 1.99,-0.7 0.42,-0.48 0.62,-1.08 0.62,-1.81l0 -1.55 7.31 0 0 4.06z"/>
   <path class="fil0" d="M188.39 24.98c-0.21,0.27 -0.48,0.58 -0.83,0.91 -0.34,0.33 -0.76,0.64 -1.25,0.91 -0.5,0.28 -1.07,0.51 -1.73,0.71 -0.65,0.2 -1.39,0.29 -2.22,0.29 -2,0 -3.56,-0.46 -4.68,-1.38 -1.13,-0.91 -1.69,-2.25 -1.69,-3.99 0,-2.18 1.01,-3.83 3.05,-4.95 2.03,-1.11 5.15,-1.67 9.35,-1.67 0,-0.64 -0.21,-1.14 -0.62,-1.48 -0.41,-0.34 -1.26,-0.52 -2.55,-0.52 -1.38,0 -2.76,0.11 -4.15,0.31 -1.39,0.21 -2.67,0.44 -3.84,0.69l0 -5.92c1.17,-0.33 2.6,-0.61 4.3,-0.85 1.7,-0.24 3.45,-0.36 5.24,-0.36 1.84,0 3.37,0.17 4.6,0.52 1.23,0.34 2.21,0.86 2.95,1.56 0.73,0.7 1.25,1.58 1.55,2.62 0.3,1.05 0.45,2.26 0.45,3.64l0 5.65 1.51 0 0 5.65 -9.44 0 0 -2.34zm0 -5.72c-1.42,0 -2.45,0.1 -3.07,0.29 -0.62,0.2 -0.93,0.53 -0.93,1.02 0,0.73 0.64,1.1 1.9,1.1 1.4,0 2.1,-0.74 2.1,-2.21l0 -0.2z"/>
  </g>
 </g>
</svg>
